<?xml version="1.0" encoding="UTF-8"?>
<svg version="1.1" xmlns="http://www.w3.org/2000/svg" width="1200" height="1200">
<path d="M0 0 C5.97820817 0.73522318 8.96507115 5.00484459 12.5625 9.42578125 C14.81472335 12.35708471 14.81472335 12.35708471 17.9375 14.23828125 C19.57828015 16.63634454 20.80255334 18.56354797 21.375 21.42578125 C21.560625 22.02390625 21.74625 22.62203125 21.9375 23.23828125 C22.865625 23.70234375 22.865625 23.70234375 23.8125 24.17578125 C26.68430379 25.61168314 27.52458546 27.41245216 28.9375 30.23828125 C28.9375 30.89828125 28.9375 31.55828125 28.9375 32.23828125 C29.8346875 32.54765625 29.8346875 32.54765625 30.75 32.86328125 C33.73890701 34.7420228 34.43385024 37.10022958 35.9375 40.23828125 C36.9275 40.89828125 37.9175 41.55828125 38.9375 42.23828125 C41.9375 47.57161458 41.9375 47.57161458 41.9375 50.23828125 C42.5975 50.23828125 43.2575 50.23828125 43.9375 50.23828125 C44.5975 51.88828125 45.2575 53.53828125 45.9375 55.23828125 C46.5975 55.23828125 47.2575 55.23828125 47.9375 55.23828125 C47.9375 55.89828125 47.9375 56.55828125 47.9375 57.23828125 C49.57332031 57.40263672 49.57332031 57.40263672 51.2421875 57.5703125 C59.4258265 58.41979986 67.56731518 59.40525571 75.6875 60.73828125 C76.42468262 60.8566333 77.16186523 60.97498535 77.92138672 61.09692383 C80.96269534 61.61219263 83.85288874 62.20940771 86.77490234 63.20654297 C89.98868254 64.25497859 93.10483502 64.92570378 96.4296875 65.52734375 C97.62851562 65.74648438 98.82734375 65.965625 100.0625 66.19140625 C101.3 66.413125 102.5375 66.63484375 103.8125 66.86328125 C105.07320312 67.09273437 106.33390625 67.3221875 107.6328125 67.55859375 C110.73369016 68.12238969 113.83524018 68.68214985 116.9375 69.23828125 C116.9375 69.89828125 116.9375 70.55828125 116.9375 71.23828125 C118.195625 71.32078125 119.45375 71.40328125 120.75 71.48828125 C126.16256017 72.02487127 131.43204428 73.06518784 136.75 74.17578125 C137.57411377 74.34561523 138.39822754 74.51544922 139.24731445 74.69042969 C140.038396 74.85961914 140.82947754 75.02880859 141.64453125 75.203125 C142.3506958 75.35386475 143.05686035 75.50460449 143.78442383 75.65991211 C145.9375 76.23828125 145.9375 76.23828125 148.38549805 77.22680664 C150.94160484 78.23990819 153.37732483 78.87791511 156.0625 79.45703125 C157.01640625 79.66714844 157.9703125 79.87726563 158.953125 80.09375 C160.43039062 80.41279297 160.43039062 80.41279297 161.9375 80.73828125 C163.8966926 81.16140531 165.85506139 81.58836572 167.8125 82.01953125 C168.67617188 82.20580078 169.53984375 82.39207031 170.4296875 82.58398438 C173.04423084 83.26612769 175.43194361 84.23328492 177.9375 85.23828125 C179.47623125 85.63381107 181.02536411 85.99090658 182.58203125 86.30859375 C183.42314453 86.48261719 184.26425781 86.65664063 185.13085938 86.8359375 C185.99517578 87.00996094 186.85949219 87.18398438 187.75 87.36328125 C188.63365234 87.54503906 189.51730469 87.72679687 190.42773438 87.9140625 C192.59684531 88.35960961 194.76673423 88.80088102 196.9375 89.23828125 C196.9375 89.89828125 196.9375 90.55828125 196.9375 91.23828125 C198.21496094 91.36074219 199.49242187 91.48320313 200.80859375 91.609375 C205.95192683 92.18085645 210.94927101 93.1918935 216 94.30078125 C216.86560547 94.48705078 217.73121094 94.67332031 218.62304688 94.86523438 C220.72872451 95.31894392 222.83324007 95.77804129 224.9375 96.23828125 C224.9375 96.89828125 224.9375 97.55828125 224.9375 98.23828125 C225.61296875 98.29886719 226.2884375 98.35945312 226.984375 98.421875 C227.87640625 98.50566406 228.7684375 98.58945312 229.6875 98.67578125 C231.01007813 98.79759766 231.01007813 98.79759766 232.359375 98.921875 C234.63563675 99.2012344 236.72069797 99.67601546 238.9375 100.23828125 C244.06274259 100.52838932 248.04851107 99.71420244 252.9375 98.23828125 C254.2575 98.23828125 255.5775 98.23828125 256.9375 98.23828125 C256.93083817 97.43141373 256.92417633 96.6245462 256.91731262 95.79322815 C256.85699424 88.15837091 256.81142088 80.52363058 256.78206348 72.88859653 C256.76646274 68.96411975 256.74532793 65.03984123 256.71118164 61.11547852 C256.678387 57.32236238 256.66060502 53.52943595 256.65286827 49.73618889 C256.64736058 48.29502314 256.63660612 46.8538668 256.62030983 45.41278267 C256.53419336 37.47584883 256.83611065 30.65371392 259.9375 23.23828125 C260.5975 23.23828125 261.2575 23.23828125 261.9375 23.23828125 C262.22625 22.45453125 262.515 21.67078125 262.8125 20.86328125 C263.9375 18.23828125 263.9375 18.23828125 265.9375 16.23828125 C266.9275 16.23828125 267.9175 16.23828125 268.9375 16.23828125 C269.2675 15.24828125 269.5975 14.25828125 269.9375 13.23828125 C276.69458186 9.80870353 282.94592314 9.82772381 290.41210938 9.89770508 C291.66200905 9.89734347 292.91190872 9.89698187 294.19968414 9.89660931 C297.56000116 9.89847072 300.91975298 9.91323652 304.27996826 9.93444061 C307.44086787 9.95161208 310.60175466 9.95233466 313.76269531 9.95446777 C322.98767271 9.97016709 332.21259054 10.01205089 341.4375 10.05078125 C362.0625 10.11265625 382.6875 10.17453125 403.9375 10.23828125 C403.9375 60.39828125 403.9375 110.55828125 403.9375 162.23828125 C388.7575 162.56828125 373.5775 162.89828125 357.9375 163.23828125 C357.9375 171.81828125 357.9375 180.39828125 357.9375 189.23828125 C357.2775 189.23828125 356.6175 189.23828125 355.9375 189.23828125 C355.89882812 190.11226562 355.89882812 190.11226562 355.859375 191.00390625 C355.36148842 198.20063038 353.42945474 204.49261772 350.9375 211.23828125 C350.2775 211.23828125 349.6175 211.23828125 348.9375 211.23828125 C348.7828125 212.29015625 348.7828125 212.29015625 348.625 213.36328125 C347.32952249 218.78073267 345.0222985 222.51390615 340.9375 226.23828125 C338.26082443 228.84632411 335.72003423 231.45716521 333.375 234.36328125 C331.32323556 236.7833111 329.61495057 238.57641538 326.9375 240.23828125 C326.2775 240.23828125 325.6175 240.23828125 324.9375 240.23828125 C324.9375 240.89828125 324.9375 241.55828125 324.9375 242.23828125 C323.31500059 243.07647283 321.68941503 243.90869285 320.0625 244.73828125 C319.15757812 245.20234375 318.25265625 245.66640625 317.3203125 246.14453125 C314.9375 247.23828125 314.9375 247.23828125 312.9375 247.23828125 C312.9375 247.89828125 312.9375 248.55828125 312.9375 249.23828125 C307.9375 250.90494792 302.9375 252.57161458 297.9375 254.23828125 C297.00631348 254.59011475 296.07512695 254.94194824 295.11572266 255.30444336 C291.65865206 256.32021345 288.81638119 256.48165653 285.21875 256.46875 C283.32576172 256.46584961 283.32576172 256.46584961 281.39453125 256.46289062 C280.08871094 256.45064453 278.78289063 256.43839844 277.4375 256.42578125 C275.47876953 256.42481445 275.47876953 256.42481445 273.48046875 256.42382812 C267.8365986 256.39788592 262.49606841 256.29287338 256.9375 255.23828125 C256.9375 254.57828125 256.9375 253.91828125 256.9375 253.23828125 C255.2359375 253.08359375 255.2359375 253.08359375 253.5 252.92578125 C248.74352649 252.34717624 244.41851654 250.88754428 239.9375 249.23828125 C239.9375 248.57828125 239.9375 247.91828125 239.9375 247.23828125 C239.23625 246.97015625 238.535 246.70203125 237.8125 246.42578125 C229.5109519 242.99688095 229.5109519 242.99688095 227.74800843 240.66474396 C224.85419556 238.38476775 221.62616075 238.82372099 218.09436512 238.85237789 C216.87713893 238.84448922 216.87713893 238.84448922 215.6353223 238.83644119 C212.89270207 238.82238971 210.15055401 238.82987544 207.40791321 238.83714294 C205.43111742 238.83154255 203.45432496 238.82464203 201.47753781 238.81654698 C196.02696752 238.79812433 190.57653479 238.79860176 185.12594044 238.8021301 C179.25459781 238.80274041 173.38330006 238.78620216 167.51197815 238.7719574 C156.00134413 238.74699755 144.4907562 238.73879103 132.98009739 238.73712026 C123.62573053 238.73574269 114.27137545 238.72957317 104.91701317 238.72001839 C102.22626837 238.71732582 99.53552355 238.71465638 96.84477872 238.71199375 C96.17588211 238.71133061 95.50698549 238.71066747 94.81781929 238.70998423 C75.99618684 238.69151491 57.17455958 238.67968319 38.35291767 238.68101406 C37.64294454 238.6810608 36.93297141 238.68110753 36.20148395 238.68115569 C32.60289647 238.68140502 29.004309 238.68170214 25.40572152 238.68200981 C24.69100708 238.68206964 23.97629264 238.68212948 23.23992018 238.68219113 C21.7945917 238.68231244 20.34926322 238.68243783 18.90393473 238.6825673 C-3.57931982 238.68440527 -26.0624386 238.6618942 -48.5456543 238.62084961 C-73.79577922 238.57477303 -99.04581494 238.54895066 -124.29598457 238.55173928 C-126.98830116 238.55196317 -129.68061774 238.55210929 -132.37293434 238.55220222 C-133.03586769 238.55223719 -133.69880103 238.55227215 -134.38182327 238.55230817 C-144.39270104 238.5523948 -154.40347017 238.53634154 -164.41431236 238.51220512 C-175.80111901 238.48492798 -187.18770324 238.47833275 -198.57452836 238.49873339 C-204.38618573 238.50854902 -210.19741608 238.50862835 -216.0090332 238.48267365 C-221.32832667 238.45916176 -226.64685256 238.46328559 -231.96612666 238.48952604 C-233.89147278 238.49414966 -235.81687538 238.48861233 -237.74215492 238.47194581 C-248.99663709 237.97469135 -248.99663709 237.97469135 -259.04153156 242.1987009 C-259.57049638 242.73293094 -260.0994612 243.26716098 -260.64445525 243.81757981 C-262.76336646 245.94046078 -265.21074109 246.52534152 -268.0625 247.23828125 C-268.0625 247.89828125 -268.0625 248.55828125 -268.0625 249.23828125 C-269.95498819 249.91438548 -271.8516602 250.57878564 -273.75 251.23828125 C-274.80574219 251.60953125 -275.86148438 251.98078125 -276.94921875 252.36328125 C-279.84612056 253.17746695 -282.07950623 253.41537921 -285.0625 253.23828125 C-285.0625 253.89828125 -285.0625 254.55828125 -285.0625 255.23828125 C-289.37870337 256.06224652 -293.45991542 256.36681637 -297.8515625 256.37109375 C-299.12257813 256.37238281 -300.39359375 256.37367188 -301.703125 256.375 C-303.01796875 256.37113281 -304.3328125 256.36726563 -305.6875 256.36328125 C-307.02343845 256.36684635 -308.35937605 256.37074959 -309.6953125 256.375 C-311.59796875 256.37306641 -311.59796875 256.37306641 -313.5390625 256.37109375 C-314.69486816 256.36996582 -315.85067383 256.36883789 -317.04150391 256.36767578 C-319.5761928 256.25911064 -321.65291095 255.98236471 -324.0625 255.23828125 C-324.0625 254.57828125 -324.0625 253.91828125 -324.0625 253.23828125 C-324.8978125 253.18220703 -324.8978125 253.18220703 -325.75 253.125 C-331.34875424 252.64267489 -335.87915364 251.40586246 -341.0625 249.23828125 C-341.0625 248.57828125 -341.0625 247.91828125 -341.0625 247.23828125 C-342.0525 247.03203125 -343.0425 246.82578125 -344.0625 246.61328125 C-347.3053094 245.72849223 -349.11802214 244.433486 -351.60012817 242.19767761 C-356.68290029 238.3072807 -361.2393586 238.41166378 -367.46044922 238.51293945 C-369.13522842 238.50422318 -369.13522842 238.50422318 -370.84384155 238.49533081 C-374.51882454 238.48256826 -378.19230804 238.51121091 -381.8671875 238.5390625 C-384.43255204 238.53542673 -386.99791391 238.52872206 -389.56326294 238.51908875 C-395.62156584 238.50197499 -401.67933864 238.50919032 -407.73761475 238.53040999 C-419.21584213 238.57037186 -430.6938665 238.56770633 -442.17212296 238.54146385 C-445.93116239 238.53910086 -449.68972091 238.55686732 -453.44869995 238.57673645 C-455.76772057 238.57698473 -458.08674137 238.5765863 -460.40576172 238.57543945 C-461.44192627 238.58630081 -462.47809082 238.59716217 -463.5456543 238.60835266 C-472.68311603 238.57222989 -481.04277878 236.98049534 -488.30078125 231.12109375 C-492.07550014 227.08691525 -495.0625 221.81943909 -495.0625 216.23828125 C-495.7225 216.23828125 -496.3825 216.23828125 -497.0625 216.23828125 C-497.0625 209.63828125 -497.0625 203.03828125 -497.0625 196.23828125 C-496.4025 196.23828125 -495.7425 196.23828125 -495.0625 196.23828125 C-494.98 195.39265625 -494.8975 194.54703125 -494.8125 193.67578125 C-493.668185 188.43100415 -491.89279393 184.47266553 -487.375 181.42578125 C-486.2303125 180.83796875 -486.2303125 180.83796875 -485.0625 180.23828125 C-484.5675 179.24828125 -484.5675 179.24828125 -484.0625 178.23828125 C-482.13831315 177.29054743 -480.17204393 176.42708703 -478.1875 175.61328125 C-477.11757813 175.16726563 -476.04765625 174.72125 -474.9453125 174.26171875 C-472.0625 173.23828125 -472.0625 173.23828125 -469.0625 173.23828125 C-469.0625 172.57828125 -469.0625 171.91828125 -469.0625 171.23828125 C-467.12782058 170.39842041 -465.18964871 169.56660098 -463.25 168.73828125 C-462.17105469 168.27421875 -461.09210938 167.81015625 -459.98046875 167.33203125 C-457.0625 166.23828125 -457.0625 166.23828125 -454.0625 166.23828125 C-454.0625 165.57828125 -454.0625 164.91828125 -454.0625 164.23828125 C-453.25425781 163.91214844 -452.44601562 163.58601562 -451.61328125 163.25 C-450.54464844 162.81300781 -449.47601563 162.37601563 -448.375 161.92578125 C-446.79138672 161.28189453 -446.79138672 161.28189453 -445.17578125 160.625 C-442.30389944 159.34580547 -439.74336815 157.86895808 -437.0625 156.23828125 C-435.70524192 155.63422683 -434.33052823 155.06702112 -432.9375 154.55078125 C-431.94363281 154.17373047 -431.94363281 154.17373047 -430.9296875 153.7890625 C-429.0625 153.23828125 -429.0625 153.23828125 -426.0625 153.23828125 C-426.0625 152.57828125 -426.0625 151.91828125 -426.0625 151.23828125 C-423.9390984 150.40088344 -421.8137272 149.56847842 -419.6875 148.73828125 C-418.50414062 148.27421875 -417.32078125 147.81015625 -416.1015625 147.33203125 C-413.0625 146.23828125 -413.0625 146.23828125 -411.0625 146.23828125 C-411.0625 145.57828125 -411.0625 144.91828125 -411.0625 144.23828125 C-408.9390984 143.40088344 -406.8137272 142.56847842 -404.6875 141.73828125 C-403.50414062 141.27421875 -402.32078125 140.81015625 -401.1015625 140.33203125 C-398.0625 139.23828125 -398.0625 139.23828125 -396.0625 139.23828125 C-396.0625 138.57828125 -396.0625 137.91828125 -396.0625 137.23828125 C-393.9390984 136.40088344 -391.8137272 135.56847842 -389.6875 134.73828125 C-388.50414062 134.27421875 -387.32078125 133.81015625 -386.1015625 133.33203125 C-383.0625 132.23828125 -383.0625 132.23828125 -381.0625 132.23828125 C-381.0625 131.57828125 -381.0625 130.91828125 -381.0625 130.23828125 C-379.46100114 129.56523107 -377.85618971 128.90005898 -376.25 128.23828125 C-375.35667969 127.86703125 -374.46335937 127.49578125 -373.54296875 127.11328125 C-371.0625 126.23828125 -371.0625 126.23828125 -368.0625 126.23828125 C-368.000625 125.68140625 -367.93875 125.12453125 -367.875 124.55078125 C-366.03367992 119.31010102 -360.35955694 115.58043665 -356.0625 112.23828125 C-355.4025 112.23828125 -354.7425 112.23828125 -354.0625 112.23828125 C-353.7325 111.24828125 -353.4025 110.25828125 -353.0625 109.23828125 C-351.28515625 108.0703125 -351.28515625 108.0703125 -349.125 107.05078125 C-348.05958984 106.53451172 -348.05958984 106.53451172 -346.97265625 106.0078125 C-345.0625 105.23828125 -345.0625 105.23828125 -343.0625 105.23828125 C-343.0625 104.57828125 -343.0625 103.91828125 -343.0625 103.23828125 C-340.83667611 102.39493796 -338.60753974 101.56349574 -336.375 100.73828125 C-335.74916016 100.49980469 -335.12332031 100.26132812 -334.47851562 100.015625 C-330.88057701 98.69700875 -327.89729747 97.9449889 -324.0625 98.23828125 C-324.0625 97.57828125 -324.0625 96.91828125 -324.0625 96.23828125 C-320.20377497 95.33472675 -316.6192999 95.10949666 -312.66015625 95.10546875 C-311.44005859 95.10417969 -310.21996094 95.10289062 -308.96289062 95.1015625 C-307.06313477 95.10736328 -307.06313477 95.10736328 -305.125 95.11328125 C-303.86236328 95.10941406 -302.59972656 95.10554687 -301.29882812 95.1015625 C-300.07744141 95.10285156 -298.85605469 95.10414063 -297.59765625 95.10546875 C-296.487854 95.10659668 -295.37805176 95.10772461 -294.23461914 95.10888672 C-291.09864408 95.23680689 -288.14318525 95.65377818 -285.0625 96.23828125 C-285.0625 96.89828125 -285.0625 97.55828125 -285.0625 98.23828125 C-277.23242004 99.03601667 -269.86613479 99.3832841 -262.0625 98.23828125 C-262.0625 97.57828125 -262.0625 96.91828125 -262.0625 96.23828125 C-258.16840112 95.39670108 -254.27196688 94.56647065 -250.375 93.73828125 C-249.27220703 93.49980469 -248.16941406 93.26132812 -247.03320312 93.015625 C-245.96650391 92.79003906 -244.89980469 92.56445312 -243.80078125 92.33203125 C-242.33185425 92.01782227 -242.33185425 92.01782227 -240.83325195 91.69726562 C-238.18294367 91.25823315 -235.74256268 91.15272458 -233.0625 91.23828125 C-233.0625 90.57828125 -233.0625 89.91828125 -233.0625 89.23828125 C-232.39718262 89.09729004 -231.73186523 88.95629883 -231.04638672 88.81103516 C-228.00932359 88.16533533 -224.97341499 87.514357 -221.9375 86.86328125 C-220.89078125 86.6415625 -219.8440625 86.41984375 -218.765625 86.19140625 C-213.74216972 85.11040954 -208.93098204 83.88996873 -204.0625 82.23828125 C-200.8900717 81.4563447 -197.69813482 80.78110523 -194.5 80.11328125 C-193.66275391 79.93152344 -192.82550781 79.74976563 -191.96289062 79.5625 C-187.94079737 78.71540831 -184.19901272 77.98450746 -180.0625 78.23828125 C-180.0625 77.57828125 -180.0625 76.91828125 -180.0625 76.23828125 C-173.7183937 74.59351295 -167.27150251 72.95219715 -160.8125 74.92578125 C-158.43118136 76.71177023 -156.87223796 78.88013785 -155.0625 81.23828125 C-152.23260633 84.20966961 -149.41987431 86.87568452 -146.0625 89.23828125 C-146.3925 87.25828125 -146.7225 85.27828125 -147.0625 83.23828125 C-147.7225 83.23828125 -148.3825 83.23828125 -149.0625 83.23828125 C-150.18506131 80.99315863 -150.19663762 79.72371476 -150.1875 77.23828125 C-150.19007813 76.53703125 -150.19265625 75.83578125 -150.1953125 75.11328125 C-150.0625 73.23828125 -150.0625 73.23828125 -149.0625 71.23828125 C-148.4025 71.23828125 -147.7425 71.23828125 -147.0625 71.23828125 C-147.0625 70.57828125 -147.0625 69.91828125 -147.0625 69.23828125 C-143.96201072 67.68803661 -141.48355782 67.9483611 -138.0625 68.23828125 C-133.35573042 71.14582699 -131.96301318 74.12911288 -130.25 79.30078125 C-129.83105469 80.52925781 -129.41210938 81.75773438 -128.98046875 83.0234375 C-128.0625 86.23828125 -128.0625 86.23828125 -128.0625 89.23828125 C-127.4025 89.23828125 -126.7425 89.23828125 -126.0625 89.23828125 C-124.0825 95.17828125 -124.0825 95.17828125 -122.0625 101.23828125 C-103.2525 101.56828125 -84.4425 101.89828125 -65.0625 102.23828125 C-64.7325 99.26828125 -64.4025 96.29828125 -64.0625 93.23828125 C-63.60566577 90.91686816 -63.10988279 88.60252588 -62.5625 86.30078125 C-62.3046875 85.19863281 -62.046875 84.09648438 -61.78125 82.9609375 C-61.0625 80.23828125 -61.0625 80.23828125 -60.0625 78.23828125 C-59.4025 78.23828125 -58.7425 78.23828125 -58.0625 78.23828125 C-57.6603125 77.34109375 -57.6603125 77.34109375 -57.25 76.42578125 C-56.06332594 74.23980271 -54.96650887 72.82495531 -53.0625 71.23828125 C-52.4025 71.23828125 -51.7425 71.23828125 -51.0625 71.23828125 C-51.0625 70.57828125 -51.0625 69.91828125 -51.0625 69.23828125 C-44.99048847 65.83203088 -39.20207332 65.88054962 -32.390625 65.83984375 C-28.90281388 65.60215283 -28.90281388 65.60215283 -27.26953125 62.8125 C-26.87121094 61.96300781 -26.47289062 61.11351562 -26.0625 60.23828125 C-21.82112069 57.23828125 -21.82112069 57.23828125 -19.0625 57.23828125 C-19.0625 56.57828125 -19.0625 55.91828125 -19.0625 55.23828125 C-15.7625 54.57828125 -12.4625 53.91828125 -9.0625 53.23828125 C-9.09802979 52.00263428 -9.13355957 50.7669873 -9.17016602 49.49389648 C-9.30100039 44.88890615 -9.42399425 40.28373341 -9.54467773 35.6784668 C-9.59789221 33.68915103 -9.65320402 31.69989018 -9.71069336 29.71069336 C-9.79318106 26.84370765 -9.86800711 23.97660607 -9.94140625 21.109375 C-9.96844131 20.22680527 -9.99547638 19.34423553 -10.02333069 18.43492126 C-10.29520541 7.06625249 -10.29520541 7.06625249 -8 1.80078125 C-5.34163683 -0.34306002 -3.32824548 -0.11976641 0 0 Z M-146.0625 89.23828125 C-145.0625 91.23828125 -145.0625 91.23828125 -145.0625 91.23828125 Z " fill="#D40100" transform="translate(646.0625,475.76171875)"/>
<path d="M0 0 C1.24989967 -0.0003616 2.49979935 -0.00072321 3.78757477 -0.00109577 C7.14789178 0.00076564 10.5076436 0.01553144 13.86785889 0.03673553 C17.02875849 0.053907 20.18964528 0.05462958 23.35058594 0.0567627 C32.57556334 0.07246202 41.80048117 0.11434581 51.02539062 0.15307617 C71.65039062 0.21495117 92.27539062 0.27682617 113.52539062 0.34057617 C113.52539062 50.50057617 113.52539062 100.66057617 113.52539062 152.34057617 C98.34539062 152.67057617 83.16539062 153.00057617 67.52539062 153.34057617 C67.52539062 161.92057617 67.52539062 170.50057617 67.52539062 179.34057617 C66.86539063 179.34057617 66.20539063 179.34057617 65.52539062 179.34057617 C65.49960937 179.92323242 65.47382812 180.50588867 65.44726562 181.10620117 C64.94937905 188.3029253 63.01734536 194.59491264 60.52539062 201.34057617 C59.86539063 201.34057617 59.20539063 201.34057617 58.52539062 201.34057617 C58.42226563 202.04182617 58.31914063 202.74307617 58.21289062 203.46557617 C56.91741311 208.88302759 54.61018912 212.61620107 50.52539062 216.34057617 C47.84871505 218.94861904 45.30792485 221.55946014 42.96289062 224.46557617 C40.91112619 226.88560602 39.20284119 228.6787103 36.52539062 230.34057617 C35.86539063 230.34057617 35.20539063 230.34057617 34.52539062 230.34057617 C34.52539062 231.00057617 34.52539062 231.66057617 34.52539062 232.34057617 C32.90289122 233.17876775 31.27730566 234.01098777 29.65039062 234.84057617 C28.74546875 235.30463867 27.84054687 235.76870117 26.90820312 236.24682617 C24.52539062 237.34057617 24.52539062 237.34057617 22.52539062 237.34057617 C22.52539062 238.00057617 22.52539062 238.66057617 22.52539062 239.34057617 C17.52539062 241.00724284 12.52539062 242.67390951 7.52539062 244.34057617 C6.12861084 244.86832642 6.12861084 244.86832642 4.70361328 245.40673828 C1.24654269 246.42250837 -1.59572819 246.58395145 -5.19335938 246.57104492 C-7.08634766 246.56814453 -7.08634766 246.56814453 -9.01757812 246.56518555 C-10.97630859 246.54681641 -10.97630859 246.54681641 -12.97460938 246.52807617 C-14.93333984 246.52710938 -14.93333984 246.52710938 -16.93164062 246.52612305 C-22.57551077 246.50018084 -27.91604097 246.3951683 -33.47460938 245.34057617 C-33.47460938 244.68057617 -33.47460938 244.02057617 -33.47460938 243.34057617 C-35.17617188 243.18588867 -35.17617188 243.18588867 -36.91210938 243.02807617 C-41.66858288 242.44947117 -45.99359284 240.9898392 -50.47460938 239.34057617 C-50.47460938 238.68057617 -50.47460938 238.02057617 -50.47460938 237.34057617 C-51.17585937 237.07245117 -51.87710938 236.80432617 -52.59960938 236.52807617 C-54.02273438 235.94026367 -54.02273438 235.94026367 -55.47460938 235.34057617 C-56.52648437 234.90745117 -57.57835937 234.47432617 -58.66210938 234.02807617 C-61.99541322 232.02809387 -62.15534214 230.85862214 -63.47460938 227.34057617 C-64.59996094 226.68702148 -64.59996094 226.68702148 -65.74804688 226.02026367 C-68.93382455 224.05767857 -70.7270364 221.89836447 -73.03710938 218.96557617 C-74.15279297 217.56178711 -74.15279297 217.56178711 -75.29101562 216.12963867 C-76.01160156 215.20924805 -76.7321875 214.28885742 -77.47460938 213.34057617 C-78.54775391 212.02573242 -78.54775391 212.02573242 -79.64257812 210.68432617 C-82.42772275 207.12124137 -84.47460938 203.92235563 -84.47460938 199.34057617 C-85.46460938 199.01057617 -86.45460938 198.68057617 -87.47460938 198.34057617 C-88.34088767 195.75070279 -89.01202596 193.30660289 -89.59960938 190.65307617 C-89.76847656 189.94473633 -89.93734375 189.23639648 -90.11132812 188.5065918 C-93.02336967 176.09028869 -93.04875787 163.96622804 -91.66210938 151.34057617 C-91.59209717 150.65954834 -91.52208496 149.97852051 -91.44995117 149.27685547 C-90.47324527 141.30448141 -87.20505223 134.37431194 -83.47460938 127.34057617 C-82.87648438 126.20620117 -82.27835938 125.07182617 -81.66210938 123.90307617 C-77.924344 117.48706946 -73.46927839 111.75770071 -67.47460938 107.34057617 C-66.42273438 106.19588867 -66.42273438 106.19588867 -65.34960938 105.02807617 C-59.4086953 99.47461301 -50.03096586 92.34057617 -41.47460938 92.34057617 C-40.97960937 90.85557617 -40.97960937 90.85557617 -40.47460938 89.34057617 C-38.16460938 89.01057617 -35.85460937 88.68057617 -33.47460938 88.34057617 C-33.48127121 87.53370865 -33.48793304 86.72684113 -33.49479675 85.89552307 C-33.55511514 78.26066583 -33.60068849 70.6259255 -33.63004589 62.99089146 C-33.64564664 59.06641467 -33.66678144 55.14213615 -33.70092773 51.21777344 C-33.73372238 47.4246573 -33.75150435 43.63173087 -33.7592411 39.83848381 C-33.76474879 38.39731806 -33.77550325 36.95616172 -33.79179955 35.51507759 C-33.87791601 27.57814376 -33.57599872 20.75600884 -30.47460938 13.34057617 C-29.81460938 13.34057617 -29.15460937 13.34057617 -28.47460938 13.34057617 C-28.18585938 12.55682617 -27.89710938 11.77307617 -27.59960938 10.96557617 C-26.47460938 8.34057617 -26.47460938 8.34057617 -24.47460938 6.34057617 C-23.48460937 6.34057617 -22.49460937 6.34057617 -21.47460938 6.34057617 C-21.14460937 5.35057617 -20.81460938 4.36057617 -20.47460938 3.34057617 C-13.71752751 -0.08900154 -7.46618624 -0.06998126 0 0 Z " fill="#232222" transform="translate(936.474609375,485.659423828125)"/>
<path d="M0 0 C1.22009766 -0.00128906 2.44019531 -0.00257813 3.69726562 -0.00390625 C5.59702148 0.00189453 5.59702148 0.00189453 7.53515625 0.0078125 C8.79779297 0.00394531 10.06042969 0.00007812 11.36132812 -0.00390625 C12.58271484 -0.00261719 13.80410156 -0.00132812 15.0625 0 C16.17230225 0.00112793 17.28210449 0.00225586 18.42553711 0.00341797 C21.56151217 0.13133814 24.516971 0.54830943 27.59765625 1.1328125 C27.59765625 1.7928125 27.59765625 2.4528125 27.59765625 3.1328125 C29.90765625 3.4628125 32.21765625 3.7928125 34.59765625 4.1328125 C34.92765625 5.1228125 35.25765625 6.1128125 35.59765625 7.1328125 C37.72587495 8.05487257 37.72587495 8.05487257 40.28515625 8.6328125 C44.34227721 9.74299889 47.94803714 10.98047302 51.59765625 13.1328125 C51.92765625 13.7928125 52.25765625 14.4528125 52.59765625 15.1328125 C53.27828125 15.5246875 53.95890625 15.9165625 54.66015625 16.3203125 C61.96571109 20.82799527 67.91308796 26.94492803 72.59765625 34.1328125 C72.59765625 34.7928125 72.59765625 35.4528125 72.59765625 36.1328125 C73.25765625 36.1328125 73.91765625 36.1328125 74.59765625 36.1328125 C84.17659284 49.01483067 86.80018866 64.22053982 86.78515625 79.8828125 C86.78394775 81.1989856 86.78394775 81.1989856 86.78271484 82.54174805 C86.69633607 91.7326186 85.38505819 100.37240641 82.59765625 109.1328125 C81.93765625 109.1328125 81.27765625 109.1328125 80.59765625 109.1328125 C80.50484375 110.339375 80.50484375 110.339375 80.41015625 111.5703125 C77.66498934 123.60681357 68.2804199 135.15665058 58.24609375 141.921875 C56.55221476 143.09452692 56.55221476 143.09452692 55.140625 144.64453125 C53.39365859 146.32957986 51.7121319 147.25827391 49.53515625 148.3203125 C48.84292969 148.66449219 48.15070313 149.00867188 47.4375 149.36328125 C45.59765625 150.1328125 45.59765625 150.1328125 43.59765625 150.1328125 C43.59765625 150.7928125 43.59765625 151.4528125 43.59765625 152.1328125 C42.47746094 152.48214844 41.35726562 152.83148437 40.203125 153.19140625 C38.73046403 153.65102655 37.25780804 154.1106628 35.78515625 154.5703125 C35.04716797 154.80041016 34.30917969 155.03050781 33.54882812 155.26757812 C27.87745244 156.57787076 27.87745244 156.57787076 23.31616211 159.67480469 C20.69855332 161.89562578 18.4802211 161.48783876 15.1015625 161.4609375 C13.82087891 161.45578125 12.54019531 161.450625 11.22070312 161.4453125 C10.55417725 161.435 9.88765137 161.4246875 9.20092773 161.4140625 C7.17087314 161.38297661 5.14159693 161.37309589 3.11132812 161.3671875 C-7.66783328 161.2804773 -7.66783328 161.2804773 -11.40234375 160.1328125 C-11.40234375 159.4728125 -11.40234375 158.8128125 -11.40234375 158.1328125 C-12.23765625 158.07673828 -12.23765625 158.07673828 -13.08984375 158.01953125 C-18.68859799 157.53720614 -23.21899739 156.30039371 -28.40234375 154.1328125 C-28.40234375 153.4728125 -28.40234375 152.8128125 -28.40234375 152.1328125 C-29.39234375 151.9265625 -30.38234375 151.7203125 -31.40234375 151.5078125 C-34.64515315 150.62302348 -36.45786589 149.32801725 -38.93997192 147.09220886 C-44.02274404 143.20181195 -48.57920235 143.30619503 -54.80029297 143.4074707 C-56.47507217 143.39875443 -56.47507217 143.39875443 -58.1836853 143.38986206 C-61.85866829 143.37709951 -65.53215179 143.40574216 -69.20703125 143.43359375 C-71.77239579 143.42995798 -74.33775766 143.42325331 -76.90310669 143.41362 C-82.96140959 143.39650624 -89.01918239 143.40372157 -95.0774585 143.42494124 C-106.55568588 143.46490311 -118.03371025 143.46223758 -129.51196671 143.4359951 C-133.27100614 143.43363211 -137.02956466 143.45139857 -140.7885437 143.4712677 C-143.10756432 143.47151598 -145.42658512 143.47111755 -147.74560547 143.4699707 C-148.78177002 143.48083206 -149.81793457 143.49169342 -150.88549805 143.50288391 C-160.02295978 143.46676114 -168.38262253 141.87502659 -175.640625 136.015625 C-179.41534389 131.9814465 -182.40234375 126.71397034 -182.40234375 121.1328125 C-183.06234375 121.1328125 -183.72234375 121.1328125 -184.40234375 121.1328125 C-184.40234375 114.5328125 -184.40234375 107.9328125 -184.40234375 101.1328125 C-183.74234375 101.1328125 -183.08234375 101.1328125 -182.40234375 101.1328125 C-182.31984375 100.2871875 -182.23734375 99.4415625 -182.15234375 98.5703125 C-181.00802875 93.3255354 -179.23263768 89.36719678 -174.71484375 86.3203125 C-173.57015625 85.7325 -173.57015625 85.7325 -172.40234375 85.1328125 C-171.90734375 84.1428125 -171.90734375 84.1428125 -171.40234375 83.1328125 C-169.4781569 82.18507868 -167.51188768 81.32161828 -165.52734375 80.5078125 C-164.45742187 80.06179688 -163.3875 79.61578125 -162.28515625 79.15625 C-159.40234375 78.1328125 -159.40234375 78.1328125 -156.40234375 78.1328125 C-156.40234375 77.4728125 -156.40234375 76.8128125 -156.40234375 76.1328125 C-154.46766433 75.29295166 -152.52949246 74.46113223 -150.58984375 73.6328125 C-148.97142578 72.93671875 -148.97142578 72.93671875 -147.3203125 72.2265625 C-144.40234375 71.1328125 -144.40234375 71.1328125 -141.40234375 71.1328125 C-141.40234375 70.4728125 -141.40234375 69.8128125 -141.40234375 69.1328125 C-140.59410156 68.80667969 -139.78585938 68.48054687 -138.953125 68.14453125 C-137.88449219 67.70753906 -136.81585938 67.27054688 -135.71484375 66.8203125 C-134.13123047 66.17642578 -134.13123047 66.17642578 -132.515625 65.51953125 C-129.64374319 64.24033672 -127.0832119 62.76348933 -124.40234375 61.1328125 C-123.04508567 60.52875808 -121.67037198 59.96155237 -120.27734375 59.4453125 C-119.61476563 59.19394531 -118.9521875 58.94257812 -118.26953125 58.68359375 C-116.40234375 58.1328125 -116.40234375 58.1328125 -113.40234375 58.1328125 C-113.40234375 57.4728125 -113.40234375 56.8128125 -113.40234375 56.1328125 C-111.27894215 55.29541469 -109.15357095 54.46300967 -107.02734375 53.6328125 C-105.84398437 53.16875 -104.660625 52.7046875 -103.44140625 52.2265625 C-100.40234375 51.1328125 -100.40234375 51.1328125 -98.40234375 51.1328125 C-98.40234375 50.4728125 -98.40234375 49.8128125 -98.40234375 49.1328125 C-96.27894215 48.29541469 -94.15357095 47.46300967 -92.02734375 46.6328125 C-90.84398437 46.16875 -89.660625 45.7046875 -88.44140625 45.2265625 C-85.40234375 44.1328125 -85.40234375 44.1328125 -83.40234375 44.1328125 C-83.40234375 43.4728125 -83.40234375 42.8128125 -83.40234375 42.1328125 C-81.27894215 41.29541469 -79.15357095 40.46300967 -77.02734375 39.6328125 C-75.84398437 39.16875 -74.660625 38.7046875 -73.44140625 38.2265625 C-70.40234375 37.1328125 -70.40234375 37.1328125 -68.40234375 37.1328125 C-68.40234375 36.4728125 -68.40234375 35.8128125 -68.40234375 35.1328125 C-66.80084489 34.45976232 -65.19603346 33.79459023 -63.58984375 33.1328125 C-62.69652344 32.7615625 -61.80320312 32.3903125 -60.8828125 32.0078125 C-58.40234375 31.1328125 -58.40234375 31.1328125 -55.40234375 31.1328125 C-55.34046875 30.5759375 -55.27859375 30.0190625 -55.21484375 29.4453125 C-53.37352367 24.20463227 -47.69940069 20.4749679 -43.40234375 17.1328125 C-42.74234375 17.1328125 -42.08234375 17.1328125 -41.40234375 17.1328125 C-41.07234375 16.1428125 -40.74234375 15.1528125 -40.40234375 14.1328125 C-38.625 12.96484375 -38.625 12.96484375 -36.46484375 11.9453125 C-35.39943359 11.42904297 -35.39943359 11.42904297 -34.3125 10.90234375 C-32.40234375 10.1328125 -32.40234375 10.1328125 -30.40234375 10.1328125 C-30.40234375 9.4728125 -30.40234375 8.8128125 -30.40234375 8.1328125 C-28.17651986 7.28946921 -25.94738349 6.45802699 -23.71484375 5.6328125 C-23.08900391 5.39433594 -22.46316406 5.15585937 -21.81835938 4.91015625 C-18.22042076 3.59154 -15.23714122 2.83952015 -11.40234375 3.1328125 C-11.40234375 2.4728125 -11.40234375 1.8128125 -11.40234375 1.1328125 C-7.54361872 0.229258 -3.95914365 0.00402791 0 0 Z " fill="#242323" transform="translate(333.40234375,570.8671875)"/>
<path d="M0 0 C5.97820817 0.73522318 8.96507115 5.00484459 12.5625 9.42578125 C14.81472335 12.35708471 14.81472335 12.35708471 17.9375 14.23828125 C19.57828015 16.63634454 20.80255334 18.56354797 21.375 21.42578125 C21.560625 22.02390625 21.74625 22.62203125 21.9375 23.23828125 C22.55625 23.54765625 23.175 23.85703125 23.8125 24.17578125 C26.68430379 25.61168314 27.52458546 27.41245216 28.9375 30.23828125 C28.9375 30.89828125 28.9375 31.55828125 28.9375 32.23828125 C29.535625 32.44453125 30.13375 32.65078125 30.75 32.86328125 C33.73890701 34.7420228 34.43385024 37.10022958 35.9375 40.23828125 C36.9275 40.89828125 37.9175 41.55828125 38.9375 42.23828125 C41.9375 47.57161458 41.9375 47.57161458 41.9375 50.23828125 C42.5975 50.23828125 43.2575 50.23828125 43.9375 50.23828125 C44.5975 51.88828125 45.2575 53.53828125 45.9375 55.23828125 C46.5975 55.23828125 47.2575 55.23828125 47.9375 55.23828125 C47.9375 55.89828125 47.9375 56.55828125 47.9375 57.23828125 C49.57332031 57.40263672 49.57332031 57.40263672 51.2421875 57.5703125 C59.4258265 58.41979986 67.56731518 59.40525571 75.6875 60.73828125 C76.42468262 60.8566333 77.16186523 60.97498535 77.92138672 61.09692383 C80.96269534 61.61219263 83.85288874 62.20940771 86.77490234 63.20654297 C89.98868254 64.25497859 93.10483502 64.92570378 96.4296875 65.52734375 C97.62851562 65.74648438 98.82734375 65.965625 100.0625 66.19140625 C101.3 66.413125 102.5375 66.63484375 103.8125 66.86328125 C105.07320312 67.09273437 106.33390625 67.3221875 107.6328125 67.55859375 C110.73369016 68.12238969 113.83524018 68.68214985 116.9375 69.23828125 C116.9375 69.89828125 116.9375 70.55828125 116.9375 71.23828125 C118.195625 71.32078125 119.45375 71.40328125 120.75 71.48828125 C126.16256017 72.02487127 131.43204428 73.06518784 136.75 74.17578125 C137.57411377 74.34561523 138.39822754 74.51544922 139.24731445 74.69042969 C140.038396 74.85961914 140.82947754 75.02880859 141.64453125 75.203125 C142.70377808 75.42923462 142.70377808 75.42923462 143.78442383 75.65991211 C145.9375 76.23828125 145.9375 76.23828125 148.38549805 77.22680664 C150.94160484 78.23990819 153.37732483 78.87791511 156.0625 79.45703125 C157.49335937 79.77220703 157.49335937 79.77220703 158.953125 80.09375 C159.93796875 80.30644531 160.9228125 80.51914062 161.9375 80.73828125 C163.8966926 81.16140531 165.85506139 81.58836572 167.8125 82.01953125 C168.67617188 82.20580078 169.53984375 82.39207031 170.4296875 82.58398438 C173.04423084 83.26612769 175.43194361 84.23328492 177.9375 85.23828125 C179.47623125 85.63381107 181.02536411 85.99090658 182.58203125 86.30859375 C183.84370117 86.56962891 183.84370117 86.56962891 185.13085938 86.8359375 C185.99517578 87.00996094 186.85949219 87.18398438 187.75 87.36328125 C188.63365234 87.54503906 189.51730469 87.72679687 190.42773438 87.9140625 C192.59684531 88.35960961 194.76673423 88.80088102 196.9375 89.23828125 C196.9375 89.89828125 196.9375 90.55828125 196.9375 91.23828125 C198.21496094 91.36074219 199.49242187 91.48320313 200.80859375 91.609375 C205.95192683 92.18085645 210.94927101 93.1918935 216 94.30078125 C216.86560547 94.48705078 217.73121094 94.67332031 218.62304688 94.86523438 C220.72872451 95.31894392 222.83324007 95.77804129 224.9375 96.23828125 C224.9375 96.89828125 224.9375 97.55828125 224.9375 98.23828125 C225.61296875 98.29886719 226.2884375 98.35945312 226.984375 98.421875 C228.32242188 98.54755859 228.32242188 98.54755859 229.6875 98.67578125 C231.01007813 98.79759766 231.01007813 98.79759766 232.359375 98.921875 C234.9375 99.23828125 234.9375 99.23828125 236.9375 99.76953125 C239.40079817 100.34686676 241.66062685 100.33402958 244.1875 100.30078125 C245.07953125 100.29175781 245.9715625 100.28273438 246.890625 100.2734375 C247.56609375 100.26183594 248.2415625 100.25023437 248.9375 100.23828125 C248.9375 100.89828125 248.9375 101.55828125 248.9375 102.23828125 C248.19886719 102.50640625 247.46023438 102.77453125 246.69921875 103.05078125 C239.6901097 105.75823888 234.03045584 109.02771732 228.1171875 113.6640625 C225.9375 115.23828125 225.9375 115.23828125 223.9375 115.23828125 C223.5971875 116.07359375 223.5971875 116.07359375 223.25 116.92578125 C221.56721908 119.89068097 219.37641488 121.85479625 216.9375 124.23828125 C216.37023193 125.11746216 216.37023193 125.11746216 215.79150391 126.0144043 C213.6839401 129.14534851 212.10914454 130.97481562 208.34375 131.8215332 C205.05882025 131.97028777 201.84727019 131.89362351 198.5625 131.73828125 C196.74105469 131.69368774 196.74105469 131.69368774 194.8828125 131.64819336 C191.59072783 131.56141648 188.30147899 131.4432649 185.01086426 131.31365967 C181.47419909 131.18508206 177.93639672 131.10713721 174.3984375 131.0234375 C168.9732862 130.88687268 163.54882978 130.73739658 158.125 130.5546875 C156.47564453 130.49970093 156.47564453 130.49970093 154.79296875 130.44360352 C151.83279568 130.28596005 148.92075295 130.04762504 145.97241211 129.765625 C135.73720308 128.89428985 125.45604477 128.76060905 115.19140625 128.484375 C114.02089596 128.45206976 112.85038567 128.41976452 111.64440536 128.38648033 C102.59658124 128.13718081 93.54840324 127.90292286 84.5 127.67578125 C83.82928923 127.65888717 83.15857846 127.64199308 82.46754313 127.62458706 C7.41765191 125.7371549 -67.78413453 124.41884252 -142.8125 127.61328125 C-143.55882313 127.64488594 -144.30514626 127.67649063 -145.07408524 127.70905304 C-158.79128212 128.29727418 -172.45810422 128.96649332 -186.078125 130.75634766 C-190.70836657 131.34887004 -195.35275379 131.68675107 -200.0078125 132.01953125 C-200.8445752 132.07984528 -201.68133789 132.1401593 -202.54345703 132.20230103 C-205.96380425 132.44588793 -209.38448459 132.68391822 -212.80566406 132.91552734 C-215.35271571 133.08955839 -217.89898521 133.27274494 -220.4453125 133.45703125 C-221.20893097 133.50605591 -221.97254944 133.55508057 -222.75930786 133.60559082 C-227.44630705 133.95097811 -231.58490843 134.80013642 -236.0625 136.23828125 C-236.7225 134.58828125 -237.3825 132.93828125 -238.0625 131.23828125 C-238.7225 131.23828125 -239.3825 131.23828125 -240.0625 131.23828125 C-241.0414765 129.82045322 -242.01330741 128.39695428 -242.94140625 126.9453125 C-247.4040054 120.15034446 -253.59371116 113.63167306 -261.0625 110.23828125 C-261.0625 109.57828125 -261.0625 108.91828125 -261.0625 108.23828125 C-262.238125 107.86703125 -262.238125 107.86703125 -263.4375 107.48828125 C-268.04651329 105.89896632 -272.54797716 104.07620952 -277.0625 102.23828125 C-277.0625 101.57828125 -277.0625 100.91828125 -277.0625 100.23828125 C-275.50133181 99.89876506 -273.93848662 99.56695581 -272.375 99.23828125 C-271.50488281 99.05265625 -270.63476562 98.86703125 -269.73828125 98.67578125 C-267.12537036 98.24856078 -264.70436962 98.16211924 -262.0625 98.23828125 C-262.0625 97.57828125 -262.0625 96.91828125 -262.0625 96.23828125 C-258.16840112 95.39670108 -254.27196688 94.56647065 -250.375 93.73828125 C-248.72081055 93.38056641 -248.72081055 93.38056641 -247.03320312 93.015625 C-245.96650391 92.79003906 -244.89980469 92.56445312 -243.80078125 92.33203125 C-242.82149658 92.12255859 -241.84221191 91.91308594 -240.83325195 91.69726562 C-238.18294367 91.25823315 -235.74256268 91.15272458 -233.0625 91.23828125 C-233.0625 90.57828125 -233.0625 89.91828125 -233.0625 89.23828125 C-232.39718262 89.09729004 -231.73186523 88.95629883 -231.04638672 88.81103516 C-228.00932359 88.16533533 -224.97341499 87.514357 -221.9375 86.86328125 C-220.89078125 86.6415625 -219.8440625 86.41984375 -218.765625 86.19140625 C-213.74216972 85.11040954 -208.93098204 83.88996873 -204.0625 82.23828125 C-200.8900717 81.4563447 -197.69813482 80.78110523 -194.5 80.11328125 C-193.66275391 79.93152344 -192.82550781 79.74976563 -191.96289062 79.5625 C-187.94079737 78.71540831 -184.19901272 77.98450746 -180.0625 78.23828125 C-180.0625 77.57828125 -180.0625 76.91828125 -180.0625 76.23828125 C-173.7183937 74.59351295 -167.27150251 72.95219715 -160.8125 74.92578125 C-158.43118136 76.71177023 -156.87223796 78.88013785 -155.0625 81.23828125 C-152.23260633 84.20966961 -149.41987431 86.87568452 -146.0625 89.23828125 C-146.3925 87.25828125 -146.7225 85.27828125 -147.0625 83.23828125 C-147.7225 83.23828125 -148.3825 83.23828125 -149.0625 83.23828125 C-150.18506131 80.99315863 -150.19663762 79.72371476 -150.1875 77.23828125 C-150.19136719 76.18640625 -150.19136719 76.18640625 -150.1953125 75.11328125 C-150.0625 73.23828125 -150.0625 73.23828125 -149.0625 71.23828125 C-148.4025 71.23828125 -147.7425 71.23828125 -147.0625 71.23828125 C-147.0625 70.57828125 -147.0625 69.91828125 -147.0625 69.23828125 C-143.96201072 67.68803661 -141.48355782 67.9483611 -138.0625 68.23828125 C-133.35573042 71.14582699 -131.96301318 74.12911288 -130.25 79.30078125 C-129.83105469 80.52925781 -129.41210938 81.75773438 -128.98046875 83.0234375 C-128.0625 86.23828125 -128.0625 86.23828125 -128.0625 89.23828125 C-127.4025 89.23828125 -126.7425 89.23828125 -126.0625 89.23828125 C-124.0825 95.17828125 -124.0825 95.17828125 -122.0625 101.23828125 C-103.2525 101.56828125 -84.4425 101.89828125 -65.0625 102.23828125 C-64.7325 99.26828125 -64.4025 96.29828125 -64.0625 93.23828125 C-63.60566577 90.91686816 -63.10988279 88.60252588 -62.5625 86.30078125 C-62.3046875 85.19863281 -62.046875 84.09648438 -61.78125 82.9609375 C-61.0625 80.23828125 -61.0625 80.23828125 -60.0625 78.23828125 C-59.4025 78.23828125 -58.7425 78.23828125 -58.0625 78.23828125 C-57.6603125 77.34109375 -57.6603125 77.34109375 -57.25 76.42578125 C-56.06332594 74.23980271 -54.96650887 72.82495531 -53.0625 71.23828125 C-52.4025 71.23828125 -51.7425 71.23828125 -51.0625 71.23828125 C-51.0625 70.57828125 -51.0625 69.91828125 -51.0625 69.23828125 C-44.99048847 65.83203088 -39.20207332 65.88054962 -32.390625 65.83984375 C-28.90281388 65.60215283 -28.90281388 65.60215283 -27.26953125 62.8125 C-26.87121094 61.96300781 -26.47289062 61.11351562 -26.0625 60.23828125 C-21.82112069 57.23828125 -21.82112069 57.23828125 -19.0625 57.23828125 C-19.0625 56.57828125 -19.0625 55.91828125 -19.0625 55.23828125 C-15.7625 54.57828125 -12.4625 53.91828125 -9.0625 53.23828125 C-9.09802979 52.00263428 -9.13355957 50.7669873 -9.17016602 49.49389648 C-9.30100039 44.88890615 -9.42399425 40.28373341 -9.54467773 35.6784668 C-9.59789221 33.68915103 -9.65320402 31.69989018 -9.71069336 29.71069336 C-9.79318106 26.84370765 -9.86800711 23.97660607 -9.94140625 21.109375 C-9.96844131 20.22680527 -9.99547638 19.34423553 -10.02333069 18.43492126 C-10.29520541 7.06625249 -10.29520541 7.06625249 -8 1.80078125 C-5.34163683 -0.34306002 -3.32824548 -0.11976641 0 0 Z M-146.0625 89.23828125 C-145.0625 91.23828125 -145.0625 91.23828125 -145.0625 91.23828125 Z " fill="#C10404" transform="translate(646.0625,475.76171875)"/>
<path d="M0 0 C1.24989967 -0.0003616 2.49979935 -0.00072321 3.78757477 -0.00109577 C7.14789178 0.00076564 10.5076436 0.01553144 13.86785889 0.03673553 C17.02875849 0.053907 20.18964528 0.05462958 23.35058594 0.0567627 C32.57556334 0.07246202 41.80048117 0.11434581 51.02539062 0.15307617 C71.65039062 0.21495117 92.27539062 0.27682617 113.52539062 0.34057617 C113.52539062 50.50057617 113.52539062 100.66057617 113.52539062 152.34057617 C73.52539062 152.34057617 73.52539062 152.34057617 64.52539062 151.34057617 C63.52206008 148.04989087 62.52258676 144.75812017 61.52539062 141.46557617 C61.23921875 140.52842773 60.95304688 139.5912793 60.65820312 138.62573242 C60.25214844 137.28188477 60.25214844 137.28188477 59.83789062 135.91088867 C59.58652344 135.08347168 59.33515625 134.25605469 59.07617188 133.40356445 C58.52539062 131.34057617 58.52539062 131.34057617 58.52539062 129.34057617 C57.86539063 129.34057617 57.20539063 129.34057617 56.52539062 129.34057617 C56.17347656 128.63932617 55.8215625 127.93807617 55.45898438 127.21557617 C48.0207281 112.92169466 35.19572014 99.56401934 19.52539062 94.34057617 C19.19539062 93.68057617 18.86539063 93.02057617 18.52539062 92.34057617 C4.48983978 86.10255357 -12.76222482 86.57873616 -27.7199707 87.85107422 C-28.79829666 87.94237106 -29.87662262 88.03366791 -30.98762512 88.12773132 C-32.21868233 88.23308952 -32.21868233 88.23308952 -33.47460938 88.34057617 C-33.54437497 79.89071312 -33.59755457 71.44097209 -33.63004589 62.99089146 C-33.64564664 59.06641467 -33.66678144 55.14213615 -33.70092773 51.21777344 C-33.73372238 47.4246573 -33.75150435 43.63173087 -33.7592411 39.83848381 C-33.76474879 38.39731806 -33.77550325 36.95616172 -33.79179955 35.51507759 C-33.87791601 27.57814376 -33.57599872 20.75600884 -30.47460938 13.34057617 C-29.81460938 13.34057617 -29.15460937 13.34057617 -28.47460938 13.34057617 C-28.18585937 12.55682617 -27.89710938 11.77307617 -27.59960938 10.96557617 C-26.47460938 8.34057617 -26.47460938 8.34057617 -24.47460938 6.34057617 C-23.48460937 6.34057617 -22.49460937 6.34057617 -21.47460938 6.34057617 C-21.14460937 5.35057617 -20.81460938 4.36057617 -20.47460938 3.34057617 C-13.71752751 -0.08900154 -7.46618624 -0.06998126 0 0 Z " fill="#D40202" transform="translate(936.474609375,485.659423828125)"/>
<path d="M0 0 C-1.65 3.63 -3.3 7.26 -5 11 C-5.66 11 -6.32 11 -7 11 C-7.18175781 11.60585938 -7.36351562 12.21171875 -7.55078125 12.8359375 C-7.80214844 13.67382812 -8.05351562 14.51171875 -8.3125 15.375 C-8.58449219 16.28894531 -8.85648437 17.20289063 -9.13671875 18.14453125 C-9.6854203 19.95946713 -10.24889399 21.7700523 -10.83203125 23.57421875 C-11.09371094 24.39535156 -11.35539062 25.21648438 -11.625 26.0625 C-11.86476563 26.79597656 -12.10453125 27.52945313 -12.3515625 28.28515625 C-14.13367153 35.74639588 -14.18222732 43.36515327 -14.1875 51 C-14.19974609 51.93328125 -14.21199219 52.8665625 -14.22460938 53.828125 C-14.26679375 73.96413412 -4.290217 91.15862122 9.328125 105.3828125 C11.91062592 108.07472696 11.91062592 108.07472696 15 110 C15 110.66 15 111.32 15 112 C-0.21269673 111.93933556 -15.42524294 111.86174446 -30.63774681 111.76428509 C-37.70200478 111.7194176 -44.76621336 111.6799824 -51.83056641 111.65356445 C-58.65175051 111.62804032 -65.47270469 111.58707505 -72.29375076 111.53681374 C-74.8923327 111.52016623 -77.49095279 111.50863882 -80.08958054 111.50238609 C-83.73752571 111.49272236 -87.38490895 111.4646342 -91.03271484 111.43237305 C-92.10014923 111.43380814 -93.16758362 111.43524323 -94.2673645 111.4367218 C-103.47608676 111.32202045 -111.91495454 109.79495049 -119.23828125 103.8828125 C-123.01300014 99.848634 -126 94.58115784 -126 89 C-126.66 89 -127.32 89 -128 89 C-128 82.4 -128 75.8 -128 69 C-127.34 69 -126.68 69 -126 69 C-125.9175 68.154375 -125.835 67.30875 -125.75 66.4375 C-124.605685 61.1927229 -122.83029393 57.23438428 -118.3125 54.1875 C-117.1678125 53.5996875 -117.1678125 53.5996875 -116 53 C-115.67 52.34 -115.34 51.68 -115 51 C-113.07581315 50.05226618 -111.10954393 49.18880578 -109.125 48.375 C-108.05507812 47.92898438 -106.98515625 47.48296875 -105.8828125 47.0234375 C-103 46 -103 46 -100 46 C-100 45.34 -100 44.68 -100 44 C-98.06532058 43.16013916 -96.12714871 42.32831973 -94.1875 41.5 C-93.10855469 41.0359375 -92.02960938 40.571875 -90.91796875 40.09375 C-88 39 -88 39 -85 39 C-85 38.34 -85 37.68 -85 37 C-83.78763672 36.51080078 -83.78763672 36.51080078 -82.55078125 36.01171875 C-81.48214844 35.57472656 -80.41351563 35.13773438 -79.3125 34.6875 C-78.25675781 34.25824219 -77.20101562 33.82898438 -76.11328125 33.38671875 C-73.24139944 32.10752422 -70.68086815 30.63067683 -68 29 C-66.64274192 28.39594558 -65.26802823 27.82873987 -63.875 27.3125 C-63.21242188 27.06113281 -62.54984375 26.80976562 -61.8671875 26.55078125 C-60 26 -60 26 -57 26 C-57 25.34 -57 24.68 -57 24 C-54.8765984 23.16260219 -52.7512272 22.33019717 -50.625 21.5 C-49.44164062 21.0359375 -48.25828125 20.571875 -47.0390625 20.09375 C-44 19 -44 19 -42 19 C-42 18.34 -42 17.68 -42 17 C-39.8765984 16.16260219 -37.7512272 15.33019717 -35.625 14.5 C-34.44164062 14.0359375 -33.25828125 13.571875 -32.0390625 13.09375 C-29 12 -29 12 -27 12 C-27 11.34 -27 10.68 -27 10 C-24.8765984 9.16260219 -22.7512272 8.33019717 -20.625 7.5 C-19.44164062 7.0359375 -18.25828125 6.571875 -17.0390625 6.09375 C-14 5 -14 5 -12 5 C-12 4.34 -12 3.68 -12 3 C-10.3789897 2.30314502 -8.75303934 1.61777139 -7.125 0.9375 C-6.22007812 0.55464844 -5.31515625 0.17179688 -4.3828125 -0.22265625 C-2 -1 -2 -1 0 0 Z " fill="#DA0D0D" transform="translate(277,603)"/>
<path d="M0 0 C10.53700372 7.08696157 16.38301838 15.21649348 20.11328125 27.23828125 C20.46648437 28.05296875 20.8196875 28.86765625 21.18359375 29.70703125 C24.2400165 38.02872009 22.04367064 46.63537192 19.36328125 54.73828125 C19.11126953 55.50358154 18.85925781 56.26888184 18.59960938 57.05737305 C16.19373127 63.85277876 12.31020444 68.28307542 7.11328125 73.23828125 C6.64535156 73.71265625 6.17742187 74.18703125 5.6953125 74.67578125 C-3.53182438 83.42447399 -12.82725431 85.77264396 -25.19921875 85.80078125 C-26.22523193 85.80319824 -27.25124512 85.80561523 -28.30834961 85.80810547 C-40.36074004 85.5436483 -49.08751988 80.90752609 -57.67578125 72.51171875 C-66.88671875 62.66371353 -66.88671875 62.66371353 -66.88671875 56.23828125 C-67.54671875 56.23828125 -68.20671875 56.23828125 -68.88671875 56.23828125 C-70.86242984 50.46795045 -71.19111783 45.31284539 -71.13671875 39.23828125 C-71.14445312 38.37460937 -71.1521875 37.5109375 -71.16015625 36.62109375 C-71.14441229 31.44132928 -70.56574044 27.14209064 -68.88671875 22.23828125 C-68.22671875 22.23828125 -67.56671875 22.23828125 -66.88671875 22.23828125 C-66.75136719 21.68140625 -66.61601562 21.12453125 -66.4765625 20.55078125 C-63.93542995 11.54269461 -58.80366936 6.09641004 -50.88671875 1.23828125 C-50.44714844 0.76390625 -50.00757813 0.28953125 -49.5546875 -0.19921875 C-36.56381027 -12.36865878 -13.46217401 -8.21575166 0 0 Z " fill="#DDDDDD" transform="translate(365.88671875,611.76171875)"/>
<path d="M0 0 C8.47434491 6.54835743 15.98404987 15.38886522 18.1875 26.1875 C18.40742689 29.6013568 18.37263467 33.01723437 18.375 36.4375 C18.38724609 37.35402344 18.39949219 38.27054688 18.41210938 39.21484375 C18.42425949 44.89299676 17.80478004 49.74116564 16.1875 55.1875 C15.5275 55.1875 14.8675 55.1875 14.1875 55.1875 C13.87232422 56.71117187 13.87232422 56.71117187 13.55078125 58.265625 C12.24765464 62.80997873 9.6178707 65.60444064 6.375 68.9375 C5.59286133 69.78248047 5.59286133 69.78248047 4.79492188 70.64453125 C1.85985597 73.7444885 -0.91862169 76.30997633 -4.8125 78.1875 C-5.8025 78.1875 -6.7925 78.1875 -7.8125 78.1875 C-7.8125 78.8475 -7.8125 79.5075 -7.8125 80.1875 C-21.85033304 85.14753434 -34.36524806 85.87242063 -48.18359375 79.67578125 C-54.77676253 76.34552006 -59.52875206 73.18196546 -63.8125 67.1875 C-64.72579252 66.18441748 -65.64236666 65.18431112 -66.5625 64.1875 C-69.14153409 60.74878788 -69.90026206 58.3340361 -70.8125 54.1875 C-71.4725 54.1875 -72.1325 54.1875 -72.8125 54.1875 C-76.01529204 39.66055038 -75.51290929 27.59496581 -68.8125 14.1875 C-66.16492326 10.11061553 -63.23320217 6.63229162 -59.8125 3.1875 C-59.2246875 2.57390625 -58.636875 1.9603125 -58.03125 1.328125 C-43.10123874 -12.89764044 -15.81073775 -10.87120152 0 0 Z " fill="#DDDDDD" transform="translate(950.8125,613.8125)"/>
<path d="M0 0 C6.71539173 1.29975324 12.72019113 3.29928888 19 6 C19 6.66 19 7.32 19 8 C19.6290625 8.09796875 20.258125 8.1959375 20.90625 8.296875 C26.07186811 9.19930226 30.2810126 10.43183783 34.87890625 12.9296875 C38.20055038 14.60580259 41.69012605 15.75906096 45.1953125 16.9921875 C47.91273978 17.96864466 50.57889686 19.02895464 53.25 20.125 C56.16483686 21.31510883 59.01634879 22.33089133 62.0625 23.125 C63.031875 23.41375 64.00125 23.7025 65 24 C65.495 24.99 65.495 24.99 66 26 C68.69976621 27.06041145 71.37557996 28.02485806 74.125 28.9375 C75.62840309 29.44425052 77.13101851 29.95334423 78.6328125 30.46484375 C79.37104248 30.71451904 80.10927246 30.96419434 80.86987305 31.22143555 C82.86226008 31.94965586 84.73748907 32.79410616 86.65234375 33.703125 C90.321397 35.12450852 92.55392459 35.21654395 96.4375 34.8125 C97.48808594 34.71582031 98.53867187 34.61914062 99.62109375 34.51953125 C103.07893732 34.04797219 103.07893732 34.04797219 106.69873047 33.02783203 C110.85027424 31.97501863 114.94211967 31.4441064 119.19921875 31.03515625 C120.75456817 30.87315125 122.30990635 30.71103841 123.86523438 30.54882812 C126.26919424 30.30504009 128.67338667 30.06389966 131.07788086 29.82543945 C139.89594197 28.94281694 148.38010396 27.83750089 156.99829102 25.68920898 C161.99273312 24.54245745 167.03397585 24.02755483 172.125 23.5 C173.21868896 23.37963379 174.31237793 23.25926758 175.43920898 23.13525391 C178.95867948 22.7490589 182.47917327 22.37361547 186 22 C189.80288816 21.59333136 193.60554036 21.18477496 197.40771484 20.77148438 C199.81509247 20.5103233 202.22296714 20.25369792 204.63134766 20.00195312 C205.71335449 19.88529297 206.79536133 19.76863281 207.91015625 19.6484375 C208.87058838 19.54708496 209.83102051 19.44573242 210.82055664 19.34130859 C212.97288373 19.22351302 212.97288373 19.22351302 214 18 C216.95171587 17.55317451 219.89218674 17.16237688 222.85546875 16.80859375 C223.7498616 16.69902847 224.64425446 16.5894632 225.56575012 16.47657776 C227.4645581 16.24505967 229.36363133 16.01570865 231.26293945 15.78833008 C234.15846943 15.44098251 237.05288297 15.08528291 239.94726562 14.72851562 C241.79160545 14.5047033 243.63600475 14.28138045 245.48046875 14.05859375 C246.77454903 13.89924599 246.77454903 13.89924599 248.09477234 13.73667908 C252.42599288 13.22320986 256.62837417 12.87973702 261 13 C261 12.34 261 11.68 261 11 C261.7748877 10.92483154 262.54977539 10.84966309 263.34814453 10.7722168 C269.54642692 10.16270828 275.74193776 9.52909348 281.93359375 8.85546875 C283.11236084 8.72809326 284.29112793 8.60071777 285.50561523 8.46948242 C290.15168562 7.84526714 294.67739894 6.86637882 299.23046875 5.76171875 C304.782774 4.63975033 310.37778065 3.98510048 316 3.3125 C317.63231567 3.11527344 317.63231567 3.11527344 319.29760742 2.9140625 C324.23748589 2.34252536 329.02089536 1.93537797 334 2 C330.21301596 4.52465603 326.55897778 5.36883479 322.1875 6.5 C321.34469482 6.72067139 320.50188965 6.94134277 319.63354492 7.16870117 C312.47042348 8.98948893 305.35198725 10.19643859 298 11 C298 11.66 298 12.32 298 13 C297.42556152 13.10546143 296.85112305 13.21092285 296.25927734 13.31958008 C293.62935407 13.80788842 291.00226013 14.31006847 288.375 14.8125 C287.47136719 14.97814453 286.56773437 15.14378906 285.63671875 15.31445312 C284.31220703 15.5706543 284.31220703 15.5706543 282.9609375 15.83203125 C281.75123291 16.05983276 281.75123291 16.05983276 280.51708984 16.29223633 C277.86371853 16.94927605 277.86371853 16.94927605 275.08911133 18.48632812 C271.87339125 20.06203859 269.12876101 20.75638036 265.61328125 21.38671875 C264.42798828 21.60263672 263.24269531 21.81855469 262.02148438 22.04101562 C260.79751953 22.25435547 259.57355469 22.46769531 258.3125 22.6875 C257.07693359 22.91244141 255.84136719 23.13738281 254.56835938 23.36914062 C245.48214286 25 245.48214286 25 242 25 C242 25.66 242 26.32 242 27 C237.8967776 27.83802913 233.79227638 28.66961878 229.6875 29.5 C228.52025391 29.73847656 227.35300781 29.97695313 226.15039062 30.22265625 C224.47299805 30.56103516 224.47299805 30.56103516 222.76171875 30.90625 C221.2142395 31.22045898 221.2142395 31.22045898 219.63549805 31.54101562 C217 32 217 32 214 32 C214 32.66 214 33.32 214 34 C212.83984375 34.25394531 211.6796875 34.50789062 210.484375 34.76953125 C202.64694001 36.49285816 194.82258384 38.23576932 187.046875 40.22265625 C184.09648268 40.97538455 181.14047863 41.70322142 178.18359375 42.42993164 C172.37623227 43.86179887 166.61536322 45.37642919 160.875 47.0625 C155.03641801 48.76486559 149.17327301 50.06390622 143.21875 51.2890625 C140.4993159 51.88971421 137.90058117 52.59330805 135.25 53.4375 C129.81241659 55.15985229 124.26323471 56.31187971 118.68261719 57.46655273 C114.89859678 58.27009472 111.27018797 59.20552092 107.6171875 60.484375 C102.55980119 62.22780916 97.43831699 63.26617056 92.1875 64.25 C90.7962793 64.5284375 90.7962793 64.5284375 89.37695312 64.8125 C88.48298828 64.98265625 87.58902344 65.1528125 86.66796875 65.328125 C85.86641357 65.4818457 85.0648584 65.63556641 84.23901367 65.79394531 C79.73184996 66.20873608 76.66563999 64.5033639 73 62 C71.33333333 60.33333333 69.66666667 58.66666667 68 57 C65.51818665 54.95366668 62.99741771 52.96178703 60.47265625 50.96875 C58.46416317 49.36957067 56.50129392 47.74434533 54.5625 46.0625 C51.71069171 43.5896033 48.80265074 41.19517679 45.875 38.8125 C41.68783458 35.40073559 37.55058169 31.9376092 33.4375 28.4375 C28.75764191 24.45672501 24.01068222 20.57840247 19.1953125 16.76171875 C16.7005489 14.75969316 14.28338296 12.68193769 11.87109375 10.58203125 C8.63324237 7.84439073 5.28048733 5.24926356 1.94140625 2.63671875 C1.30074219 2.09660156 0.66007812 1.55648437 0 1 C0 0.67 0 0.34 0 0 Z " fill="#FDA53D" transform="translate(508,620)"/>
<path d="M0 0 C0.66508953 0.00042423 1.33017906 0.00084846 2.01542282 0.00128555 C18.80196343 0.01217829 35.58848325 0.03225439 52.375 0.0625 C52.375 0.3925 52.375 0.7225 52.375 1.0625 C48.18023305 1.82522085 44.07152616 2.27747435 39.81640625 2.52734375 C37.92317627 2.64263428 37.92317627 2.64263428 35.99169922 2.76025391 C35.33006775 2.79934875 34.66843628 2.8384436 33.98675537 2.87872314 C23.55917027 3.49583741 13.15126466 4.2119416 2.75 5.1875 C-5.07554185 5.91569501 -12.75971668 6.33423724 -20.625 6.0625 C-20.625 6.7225 -20.625 7.3825 -20.625 8.0625 C-21.80746056 8.14646782 -21.80746056 8.14646782 -23.0138092 8.23213196 C-30.55652637 8.76896846 -38.09872545 9.31244414 -45.64046574 9.86282063 C-49.51487211 10.14534437 -53.38941212 10.42556949 -57.2644043 10.69995117 C-74.37302741 11.91308209 -91.35508916 13.37184065 -108.34823608 15.75869751 C-113.54801856 16.45253619 -118.76980548 16.86687419 -124 17.25 C-125.51980469 17.3727832 -125.51980469 17.3727832 -127.0703125 17.49804688 C-129.92105949 17.71776118 -132.77028265 17.9032996 -135.625 18.0625 C-136.84920654 18.13476807 -136.84920654 18.13476807 -138.09814453 18.20849609 C-143.28900932 18.38090265 -146.9436925 17.48447788 -151.75 15.3125 C-159.21422186 12.07136772 -166.71791927 9.96917195 -174.625 8.0625 C-174.625 7.4025 -174.625 6.7425 -174.625 6.0625 C-175.20507812 5.94132813 -175.78515625 5.82015625 -176.3828125 5.6953125 C-180.90528442 4.72514526 -185.26250966 3.62852217 -189.625 2.0625 C-189.625 1.7325 -189.625 1.4025 -189.625 1.0625 C-171.79176059 0.88545983 -153.95842532 0.71965313 -136.125 0.5625 C-135.45139466 0.55655146 -134.77778933 0.55060292 -134.08377171 0.54447412 C-89.38872998 0.15056127 -44.69675402 -0.02937467 0 0 Z " fill="#FDA43D" transform="translate(741.625,618.9375)"/>
<path d="M0 0 C0 21.12 0 42.24 0 64 C-19 64 -19 64 -25 61 C-28.76809741 55.85838156 -28.45196008 50.46418092 -28.43359375 44.34375 C-28.4388356 43.32325562 -28.44407745 42.30276123 -28.44947815 41.25134277 C-28.45588454 39.09969999 -28.45457932 36.94802212 -28.44604492 34.79638672 C-28.43752789 31.51075772 -28.46632827 28.22686403 -28.49804688 24.94140625 C-28.49965892 22.84635469 -28.4990813 20.75130005 -28.49609375 18.65625 C-28.50732773 17.67797241 -28.51856171 16.69969482 -28.53013611 15.69177246 C-28.47182882 9.96632886 -27.93116873 6.48259158 -24 2 C-17.32052512 -2.45298325 -8.02772972 0 0 0 Z " fill="#8C0000" transform="translate(492,629)"/>
<path d="M0 0 C0.66 0 1.32 0 2 0 C0.5 3 0.5 3 -1 6 C-1.09971082 7.48482985 -1.13830713 8.97400044 -1.14526367 10.4621582 C-1.15164352 11.38684402 -1.15802338 12.31152985 -1.16459656 13.26423645 C-1.16570938 14.26629623 -1.1668222 15.26835602 -1.16796875 16.30078125 C-1.17129715 17.3293071 -1.17462555 18.35783295 -1.17805481 19.41752625 C-1.18312469 21.59727531 -1.18546312 23.77703215 -1.18530273 25.95678711 C-1.18748421 29.28837955 -1.20562558 32.61963828 -1.22460938 35.95117188 C-1.22754429 38.0677072 -1.22952843 40.1842441 -1.23046875 42.30078125 C-1.23765427 43.29676834 -1.24483978 44.29275543 -1.25224304 45.31892395 C-1.24780254 51.88268485 -1.24780254 51.88268485 1 58 C-3.81245857 57.48803632 -8.03429289 56.43780803 -12.58984375 54.8125 C-15.02799673 53.95701772 -15.02799673 53.95701772 -17.69140625 53.3125 C-18.57699219 53.085625 -19.46257812 52.85875 -20.375 52.625 C-21.18710937 52.43164062 -21.99921875 52.23828125 -22.8359375 52.0390625 C-25.93655239 50.55031961 -26.67651057 49.16963073 -28 46 C-28.37005833 43.1123679 -28.33176678 40.28135478 -28.25 37.375 C-28.23469238 36.57537842 -28.21938477 35.77575684 -28.20361328 34.9519043 C-28.16726487 33.35981179 -28.12270817 31.76788229 -28.06933594 30.17626953 C-28.01036168 28.32522529 -27.98940832 26.47303267 -27.9765625 24.62109375 C-27.77168559 18.95545919 -26.80333377 15.46792496 -22.71875 11.421875 C-16.87934657 6.5910958 -7.70025613 2 0 2 C0 1.34 0 0.68 0 0 Z " fill="#C10101" transform="translate(466,631)"/>
<path d="M0 0 C159.06 0 318.12 0 482 0 C482.33 0.99 482.66 1.98 483 3 C481.98314039 2.99772168 480.96628078 2.99544336 479.91860723 2.99309599 C435.10629071 2.89308651 390.29396421 2.80051926 345.48156738 2.74594116 C344.80317834 2.74511282 344.12478931 2.74428448 343.42584302 2.74343103 C328.68278622 2.72547378 313.9397282 2.70885266 299.19666836 2.69360802 C291.96672395 2.68612397 284.73677987 2.67834465 277.50683594 2.67041016 C276.78736783 2.6696256 276.06789973 2.66884105 275.32662956 2.66803272 C252.00462897 2.6424625 228.68271559 2.59739311 205.36076783 2.54221668 C181.39535755 2.48562086 157.42999552 2.44868729 133.46451953 2.43651006 C130.07992798 2.43478112 126.69533659 2.4328273 123.31074524 2.43073654 C122.31153652 2.43012973 122.31153652 2.43012973 121.29214176 2.42951067 C111.23145654 2.42285835 101.17090499 2.39890961 91.11027527 2.36561966 C79.66486273 2.32788449 68.21964712 2.31016557 56.77417165 2.31899174 C50.93214005 2.32284236 45.09054648 2.31685706 39.24859238 2.28476715 C33.90145188 2.25560924 28.55504475 2.25406803 23.20787078 2.27460663 C21.27232947 2.27714572 19.33674275 2.2694995 17.40129107 2.25070091 C6.10241219 1.73390131 6.10241219 1.73390131 -3.98503876 5.95915794 C-4.51313629 6.49357014 -5.04123382 7.02798234 -5.5853343 7.57858884 C-7.70114939 9.70449264 -10.14873572 10.28718393 -13 11 C-13 11.66 -13 12.32 -13 13 C-14.89248819 13.67610423 -16.7891602 14.34050439 -18.6875 15 C-20.27111328 15.556875 -20.27111328 15.556875 -21.88671875 16.125 C-24.78362056 16.9391857 -27.01700623 17.17709796 -30 17 C-30 17.66 -30 18.32 -30 19 C-31.32 19 -32.64 19 -34 19 C-33.505 17.515 -33.505 17.515 -33 16 C-30.17256701 14.95334858 -27.46258958 14.09229663 -24.5625 13.3125 C-23.77294922 13.08755859 -22.98339844 12.86261719 -22.16992188 12.63085938 C-16.35533815 11 -16.35533815 11 -14 11 C-14 10.34 -14 9.68 -14 9 C-12.37750059 8.16180842 -10.75191503 7.3295884 -9.125 6.5 C-8.22007812 6.0359375 -7.31515625 5.571875 -6.3828125 5.09375 C-4 4 -4 4 -2 4 C-1.34 2.68 -0.68 1.36 0 0 Z " fill="#F2C2C2" transform="translate(391,712)"/>
<path d="M0 0 C4.7040872 2.77532417 7.33467716 5.7593468 9.23046875 10.9296875 C10.22288947 17.6781484 9.48599265 22.50981014 5.54296875 28.0546875 C2.32797902 31.69473596 -0.61797222 33.76606734 -5.46875 34.52734375 C-12.09585741 34.71482649 -16.16243165 33.89485957 -21.26953125 29.4921875 C-22.45703125 28.0546875 -22.45703125 28.0546875 -22.45703125 26.0546875 C-23.11703125 26.0546875 -23.77703125 26.0546875 -24.45703125 26.0546875 C-26.52573566 21.01222051 -27.09589531 16.43512076 -26.45703125 11.0546875 C-21.80053775 0.27122887 -10.96739791 -4.21957122 0 0 Z " fill="#444444" transform="translate(349.45703125,634.9453125)"/>
<path d="M0 0 C1.90118315 1.5438179 2.51467222 3.06877809 3.55859375 5.265625 C4.08839844 5.73226562 4.61820313 6.19890625 5.1640625 6.6796875 C7.17188573 8.96309431 6.92438412 10.648166 6.87109375 13.640625 C6.86722656 14.57648437 6.86335937 15.51234375 6.859375 16.4765625 C6.28963137 21.75963981 4.62064038 24.64054213 0.55859375 28.015625 C-0.14265625 28.60859375 -0.84390625 29.2015625 -1.56640625 29.8125 C-5.76252695 33.06449355 -9.92064881 32.77473772 -15.09375 32.74609375 C-19.59453362 32.10012364 -21.77287602 30.41092559 -24.953125 27.28515625 C-29.04721235 21.72966239 -29.1783209 15.92584099 -28.44140625 9.265625 C-27.12263773 4.51174089 -25.1994987 1.88447598 -21.37890625 -1.234375 C-14.36778609 -4.60452718 -6.68583536 -3.50276613 0 0 Z " fill="#454545" transform="translate(934.44140625,636.734375)"/>
<path d="M0 0 C-1.32 5.94 -2.64 11.88 -4 18 C-4.66 18 -5.32 18 -6 18 C-6.16435547 18.94359375 -6.16435547 18.94359375 -6.33203125 19.90625 C-8.9297597 33.9297597 -8.9297597 33.9297597 -12 37 C-13.78071246 37.08726223 -15.5648314 37.10699041 -17.34765625 37.09765625 C-18.42724609 37.09443359 -19.50683594 37.09121094 -20.61914062 37.08789062 C-21.75544922 37.07951172 -22.89175781 37.07113281 -24.0625 37.0625 C-25.20267578 37.05798828 -26.34285156 37.05347656 -27.51757812 37.04882812 C-30.34510351 37.03699747 -33.1725264 37.0205141 -36 37 C-35.50631667 31.22680905 -34.85740596 25.64680878 -33.5 20 C-33.2421875 18.906875 -32.984375 17.81375 -32.71875 16.6875 C-32 14 -32 14 -31 12 C-30.34 12 -29.68 12 -29 12 C-28.731875 11.401875 -28.46375 10.80375 -28.1875 10.1875 C-27.00082594 8.00152146 -25.90400887 6.58667406 -24 5 C-23.34 5 -22.68 5 -22 5 C-22 4.34 -22 3.68 -22 3 C-14.98588111 -1.10582569 -7.90572847 -0.2098866 0 0 Z " fill="#282626" transform="translate(617,542)"/>
<path d="M0 0 C14.19 0 28.38 0 43 0 C43 1.98 43 3.96 43 6 C31.12 6 19.24 6 7 6 C7 9.63 7 13.26 7 17 C14.92 17 22.84 17 31 17 C31 18.98 31 20.96 31 23 C23.08 23 15.16 23 7 23 C7 29.27 7 35.54 7 42 C4.69 42 2.38 42 0 42 C0 28.14 0 14.28 0 0 Z " fill="#FCE7D5" transform="translate(947,520)"/>
<path d="M0 0 C2.875 1.625 2.875 1.625 5 4 C5.6875 6.75 5.6875 6.75 6 10 C6.31314325 11.33821904 6.64761255 12.67157538 7 14 C7.8535749 17.31238019 8.49220889 20.61472596 9 24 C9.66 24 10.32 24 11 24 C11.99 27.63 12.98 31.26 14 35 C3.78191168 35.61554749 3.78191168 35.61554749 0.0625 32.6875 C-0.618125 31.800625 -1.29875 30.91375 -2 30 C-2.763125 29.443125 -3.52625 28.88625 -4.3125 28.3125 C-5.1478125 27.6628125 -5.1478125 27.6628125 -6 27 C-6 26.34 -6 25.68 -6 25 C-7.32 24.34 -8.64 23.68 -10 23 C-10 22.01 -10 21.02 -10 20 C-9.34 20.33 -8.68 20.66 -8 21 C-8.33 19.02 -8.66 17.04 -9 15 C-9.66 15 -10.32 15 -11 15 C-12.12256131 12.75487738 -12.13413762 11.48543351 -12.125 9 C-12.12886719 7.948125 -12.12886719 7.948125 -12.1328125 6.875 C-12 5 -12 5 -11 3 C-10.34 3 -9.68 3 -9 3 C-9 2.34 -9 1.68 -9 1 C-5.89951072 -0.55024464 -3.42105782 -0.28992015 0 0 Z M-8 21 C-7 23 -7 23 -7 23 Z " fill="#363434" transform="translate(508,544)"/>
<path d="M0 0 C0 13.86 0 27.72 0 42 C-2.31 42 -4.62 42 -7 42 C-7 30.78 -7 19.56 -7 8 C-8.32 8 -9.64 8 -11 8 C-11 8.66 -11 9.32 -11 10 C-11.99 10 -12.98 10 -14 10 C-14 7.69 -14 5.38 -14 3 C-8.6411182 -0.21532908 -6.91192327 0 0 0 Z " fill="#FBE2D0" transform="translate(1006,520)"/>
<path d="M0 0 C0.66 0 1.32 0 2 0 C2.50615298 1.26839526 3.00469099 2.53983102 3.5 3.8125 C3.91765625 4.87404297 3.91765625 4.87404297 4.34375 5.95703125 C5 8 5 8 5 11 C5.66 11 6.32 11 7 11 C8.32 14.96 9.64 18.92 11 23 C29.81 23.33 48.62 23.66 68 24 C68 24.66 68 25.32 68 26 C48.86 26 29.72 26 10 26 C6 17 6 17 6 14 C5.34 14 4.68 14 4 14 C3.32968281 12.0429132 2.66385317 10.08428887 2 8.125 C1.62875 7.03445313 1.2575 5.94390625 0.875 4.8203125 C0 2 0 2 0 0 Z " fill="#D43C3C" transform="translate(513,554)"/>
<path d="M0 0 C2.64 0 5.28 0 8 0 C8.33 0.66 8.66 1.32 9 2 C6.69 2 4.38 2 2 2 C2 10.58 2 19.16 2 28 C1.34 28 0.68 28 0 28 C0 29.98 0 31.96 0 34 C-0.66 33.67 -1.32 33.34 -2 33 C-1.34 22.11 -0.68 11.22 0 0 Z " fill="#7A7A7A" transform="translate(1002,637)"/>
<path d="M0 0 C4.17660573 -0.26518132 7.04340734 -0.31886422 11 1 C13.77616185 3.55699118 16.24740518 6.26563648 18.625 9.1875 C20.87722335 12.11880346 20.87722335 12.11880346 24 14 C25.77529344 16.66294015 26.98568358 18.95705074 28 22 C24.43611093 20.81203698 23.84126818 19.7405195 21.6875 16.75 C18.74377154 12.83123912 15.85428107 9.99777417 12 7 C11.360625 6.236875 10.72125 5.47375 10.0625 4.6875 C7.98125027 2.69634745 7.98125027 2.69634745 4.5 2.4375 C0.83788702 2.66931425 0.83788702 2.66931425 -1.4375 5.5 C-1.953125 6.325 -2.46875 7.15 -3 8 C-2.45276317 4.62537285 -1.9451 2.91765 0 0 Z " fill="#DC9595" transform="translate(640,476)"/>
<path d="M0 0 C0.66 0.33 1.32 0.66 2 1 C1.319375 1.495 0.63875 1.99 -0.0625 2.5 C-2.45397002 4.53529363 -4.30142476 6.43703269 -6.3125 8.8125 C-9.86144161 12.97898872 -13.79734218 16.50688182 -18 20 C-18.66 19.67 -19.32 19.34 -20 19 C-17.54308794 12.96939766 -12.01895074 8.90362836 -7 5 C-6.34 5 -5.68 5 -5 5 C-4.67 4.01 -4.34 3.02 -4 2 C-2.0625 0.75 -2.0625 0.75 0 0 Z " fill="#6A6565" transform="translate(297,583)"/>
<path d="M0 0 C0.66 0 1.32 0 2 0 C0.81415384 4.15046157 -1.02518958 6.12146617 -4.41796875 8.73828125 C-6.25385664 10.14913463 -6.25385664 10.14913463 -8.625 12.6875 C-10.73250003 14.7395395 -12.30861664 15.90351048 -15 17 C-15 17.66 -15 18.32 -15 19 C-16.62249941 19.83819158 -18.24808497 20.6704116 -19.875 21.5 C-20.77992188 21.9640625 -21.68484375 22.428125 -22.6171875 22.90625 C-25 24 -25 24 -27 24 C-27 23.34 -27 22.68 -27 22 C-26.28714844 21.63648438 -25.57429687 21.27296875 -24.83984375 20.8984375 C-18.92759703 17.79510477 -13.80440664 14.64047675 -9 10 C-8.113125 9.154375 -7.22625 8.30875 -6.3125 7.4375 C-3.93508104 5.01121636 -3.93508104 5.01121636 -1.8125 2.1875 C-1.214375 1.465625 -0.61625 0.74375 0 0 Z " fill="#C8C8C8" transform="translate(986,699)"/>
<path d="M0 0 C0 0.66 0 1.32 0 2 C-1.423125 2.12375 -1.423125 2.12375 -2.875 2.25 C-4.421875 2.62125 -4.421875 2.62125 -6 3 C-6.70708359 4.31234714 -7.3682799 5.64975856 -8 7 C-9.65625 8.921875 -9.65625 8.921875 -11.5 10.75 C-12.41265625 11.67039062 -12.41265625 11.67039062 -13.34375 12.609375 C-15 14 -15 14 -17 14 C-17.33 15.98 -17.66 17.96 -18 20 C-18.66 20 -19.32 20 -20 20 C-19.125 14.25 -19.125 14.25 -18 12 C-17.34 12 -16.68 12 -16 12 C-15.71125 11.21625 -15.4225 10.4325 -15.125 9.625 C-14 7 -14 7 -12 5 C-11.01 5 -10.02 5 -9 5 C-8.67 4.01 -8.34 3.02 -8 2 C-5.01540871 0.04457812 -3.73585209 0 0 0 Z " fill="#E25454" transform="translate(924,487)"/>
<path d="M0 0 C-3.16566573 2.11044382 -5.51197415 2.75552077 -9.1875 3.625 C-10.27417969 3.88539063 -11.36085938 4.14578125 -12.48046875 4.4140625 C-13.31191406 4.60742188 -14.14335938 4.80078125 -15 5 C-15 4.67 -15 4.34 -15 4 C-20.76471999 3.89518691 -26.2852729 4.26708873 -32 5 C-33.16208984 5.14308594 -33.16208984 5.14308594 -34.34765625 5.2890625 C-36.23230746 5.52173549 -38.11623622 5.76024825 -40 6 C-36.50467057 3.66978038 -34.28527587 3.45325791 -30.13671875 2.9296875 C-29.46711624 2.84373322 -28.79751373 2.75777893 -28.10762024 2.66921997 C-26.69176699 2.48910379 -25.2754201 2.31283211 -23.85864258 2.14013672 C-21.70466507 1.87709617 -19.55254909 1.60170992 -17.40039062 1.32421875 C-11.57898575 0.59030138 -5.88046917 -0.11615463 0 0 Z " fill="#EB5A21" transform="translate(842,622)"/>
<path d="M0 0 C0 0.66 0 1.32 0 2 C-11.1328125 5.7109375 -11.1328125 5.7109375 -13.11181641 6.36669922 C-14.84064031 6.94655042 -16.56142893 7.55021781 -18.28125 8.15625 C-21.30962827 9.09609153 -23.8475397 9.15011716 -27 9 C-27 8.34 -27 7.68 -27 7 C-25.02 7 -23.04 7 -21 7 C-21 6.34 -21 5.68 -21 5 C-17.87605609 4.16267257 -14.75068026 3.33082018 -11.625 2.5 C-10.29082031 2.14228516 -10.29082031 2.14228516 -8.9296875 1.77734375 C-7.65351562 1.43896484 -7.65351562 1.43896484 -6.3515625 1.09375 C-5.56604004 0.88427734 -4.78051758 0.67480469 -3.97119141 0.45898438 C-2 0 -2 0 0 0 Z " fill="#B1B1B1" transform="translate(959,723)"/>
<path d="M0 0 C-0.93972656 0.25523437 -0.93972656 0.25523437 -1.8984375 0.515625 C-2.71570313 0.75796875 -3.53296875 1.0003125 -4.375 1.25 C-5.18710937 1.48203125 -5.99921875 1.7140625 -6.8359375 1.953125 C-9.52261983 3.2528197 -9.84660128 4.3120795 -11 7 C-12.4375 8.703125 -12.4375 8.703125 -14 10.25 C-14.515625 10.77078125 -15.03125 11.2915625 -15.5625 11.828125 C-17 13 -17 13 -19 13 C-19 13.99 -19 14.98 -19 16 C-19.66 16 -20.32 16 -21 16 C-20.67 14.35 -20.34 12.7 -20 11 C-19.34 11 -18.68 11 -18 11 C-17.731875 10.401875 -17.46375 9.80375 -17.1875 9.1875 C-16.00082594 7.00152146 -14.90400887 5.58667406 -13 4 C-12.34 4 -11.68 4 -11 4 C-11 3.34 -11 2.68 -11 2 C-4.03571429 -1.34821429 -4.03571429 -1.34821429 0 0 Z " fill="#8B8B8B" transform="translate(606,543)"/>
<path d="M0 0 C4.22973154 1.80653832 5.02857704 3.885726 7 8 C7.99 8.66 8.98 9.32 10 10 C13 15.33333333 13 15.33333333 13 18 C13.66 18 14.32 18 15 18 C15.66 19.65 16.32 21.3 17 23 C17.66 23 18.32 23 19 23 C19 23.66 19 24.32 19 25 C17.0625 24.6875 17.0625 24.6875 15 24 C14.67 23.01 14.34 22.02 14 21 C13.38125 20.401875 12.7625 19.80375 12.125 19.1875 C9.68513561 16.6758749 8.53165296 14.12989953 7 11 C6.52046875 10.53078125 6.0409375 10.0615625 5.546875 9.578125 C3.7897769 7.78552997 2.88725582 6.07319328 1.8125 3.8125 C1.46832031 3.09707031 1.12414062 2.38164062 0.76953125 1.64453125 C0.51558594 1.10183594 0.26164063 0.55914062 0 0 Z " fill="#E8ADAD" transform="translate(675,508)"/>
<path d="M0 0 C0.66 0 1.32 0 2 0 C2.50615298 1.26839526 3.00469099 2.53983102 3.5 3.8125 C3.91765625 4.87404297 3.91765625 4.87404297 4.34375 5.95703125 C5 8 5 8 5 11 C5.66 11 6.32 11 7 11 C7.67031719 12.9570868 8.33614683 14.91571113 9 16.875 C9.556875 18.51082031 9.556875 18.51082031 10.125 20.1796875 C11 23 11 23 11 25 C10.34 25 9.68 25 9 25 C8.49384702 23.73160474 7.99530901 22.46016898 7.5 21.1875 C7.2215625 20.47980469 6.943125 19.77210938 6.65625 19.04296875 C6 17 6 17 6 14 C5.34 14 4.68 14 4 14 C3.32968281 12.0429132 2.66385317 10.08428887 2 8.125 C1.62875 7.03445313 1.2575 5.94390625 0.875 4.8203125 C0 2 0 2 0 0 Z " fill="#ACA8A8" transform="translate(513,554)"/>
<path d="M0 0 C0.66 0 1.32 0 2 0 C1.69078116 1.45903258 1.37751201 2.91720722 1.0625 4.375 C0.88847656 5.18710937 0.71445312 5.99921875 0.53515625 6.8359375 C0 9 0 9 -1 11 C-1.66 11 -2.32 11 -3 11 C-3.103125 11.70125 -3.20625 12.4025 -3.3125 13.125 C-4.10571772 16.44209227 -5.2659086 19.06538379 -7 22 C-7.99 22.33 -8.98 22.66 -10 23 C-8.58377225 18.3527803 -6.66446349 14.11490163 -4.4375 9.8125 C-1.96439749 5.0195027 -1.96439749 5.0195027 0 0 Z " fill="#C2C2C2" transform="translate(998,676)"/>
<path d="M0 0 C6.71539173 1.29975324 12.72019113 3.29928888 19 6 C17 7 17 7 14.8359375 6.44140625 C14.02382813 6.15136719 13.21171875 5.86132812 12.375 5.5625 C11.55773437 5.27503906 10.74046875 4.98757813 9.8984375 4.69140625 C9.27195312 4.46324219 8.64546875 4.23507812 8 4 C8.66 5.32 9.32 6.64 10 8 C6.05205855 6.32971708 3.18203882 3.8204435 0 1 C0 0.67 0 0.34 0 0 Z " fill="#F2762C" transform="translate(508,620)"/>
<path d="M0 0 C0.66 0.33 1.32 0.66 2 1 C-3.28 6.28 -8.56 11.56 -14 17 C-14 11.79027084 -9.49956486 8.58109594 -6 5 C-4.05399166 3.22905099 -2.08162714 1.61326103 0 0 Z " fill="#B4B4B4" transform="translate(898,611)"/>
<path d="M0 0 C0.76570312 0.19916016 0.76570312 0.19916016 1.546875 0.40234375 C4.76810318 1.18713342 8.0073132 1.87192781 11.25 2.5625 C12.51328125 2.83191406 13.7765625 3.10132813 15.078125 3.37890625 C16.52445313 3.68634766 16.52445313 3.68634766 18 4 C17.67 4.66 17.34 5.32 17 6 C11.147205 5.48517081 5.6702363 4.54642808 0 3 C0 2.01 0 1.02 0 0 Z " fill="#DB6161" transform="translate(816,559)"/>
<path d="M0 0 C0 0.66 0 1.32 0 2 C-0.66 2 -1.32 2 -2 2 C-2.226875 2.53625 -2.45375 3.0725 -2.6875 3.625 C-4.43382056 6.78500863 -6.6402849 9.2676983 -9 12 C-9.6875 10.3125 -9.6875 10.3125 -10 8 C-8.11333077 3.70258674 -5.02903207 0 0 0 Z " fill="#D86767" transform="translate(627,533)"/>
<path d="M0 0 C0.66 0 1.32 0 2 0 C3.59514091 2.47018964 4.96199516 5.03487069 6.3671875 7.6171875 C8.13281042 10.19381425 9.29535692 10.65333671 12 12 C12.75 14.125 12.75 14.125 13 16 C6.88389132 12.43226994 2.85702054 9.58356907 0 3 C0 2.01 0 1.02 0 0 Z " fill="#F3BEBE" transform="translate(152,695)"/>
<path d="M0 0 C0.66 0 1.32 0 2 0 C0.62968895 5.65253308 -3.67689413 8.5113541 -8 12 C-8 8.78465943 -7.73523928 7.64417414 -6 5 C-4.35857037 3.9590934 -2.69287785 2.95495674 -1 2 C-0.67 1.34 -0.34 0.68 0 0 Z " fill="#EC8080" transform="translate(162,654)"/>
<path d="M0 0 C0.66 0 1.32 0 2 0 C1.0262847 2.17213413 0.25918276 3.76858682 -1.53125 5.3671875 C-3.36383856 7.4044801 -3.47731505 8.60812029 -3.6875 11.3125 C-3.75195312 12.10140625 -3.81640625 12.8903125 -3.8828125 13.703125 C-4.02415558 16.47344932 -4.07110521 19.22689673 -4 22 C-6.46338948 17.67189338 -6.57775096 13.88462177 -6 9 C-4.6875 6.1875 -4.6875 6.1875 -3 4 C-2.484375 3.236875 -1.96875 2.47375 -1.4375 1.6875 C-0.963125 1.130625 -0.48875 0.57375 0 0 Z " fill="#707070" transform="translate(329,637)"/>
<path d="M0 0 C0.66 0.33 1.32 0.66 2 1 C-2.95 5.95 -7.9 10.9 -13 16 C-13 13 -13 13 -10.75 10.625 C-9.8425 9.75875 -8.935 8.8925 -8 8 C-7.319375 7.13375 -6.63875 6.2675 -5.9375 5.375 C-4.11393401 3.13966105 -2.37504647 1.61163867 0 0 Z " fill="#3D1B1B" transform="translate(874,588)"/>
<path d="M0 0 C0.66 0.33 1.32 0.66 2 1 C1.24074219 1.61488281 0.48148437 2.22976563 -0.30078125 2.86328125 C-1.29464844 3.67152344 -2.28851563 4.47976563 -3.3125 5.3125 C-4.29863281 6.11300781 -5.28476562 6.91351562 -6.30078125 7.73828125 C-8.31602166 9.42688356 -10.19488009 11.09630699 -12 13 C-12.66 12.67 -13.32 12.34 -14 12 C-11.12555907 8.96586791 -8.70858653 6.85429327 -5 5 C-4.67 4.01 -4.34 3.02 -4 2 C-2.0625 0.75 -2.0625 0.75 0 0 Z " fill="#BFBFBF" transform="translate(297,583)"/>
<path d="M0 0 C5.39795989 1.15058556 10.70987333 2.42421759 16 4 C16 4.66 16 5.32 16 6 C10.13190493 5.47606294 5.45126259 4.23891142 0 2 C0 1.34 0 0.68 0 0 Z " fill="#ABABAB" transform="translate(305,723)"/>
<path d="M0 0 C0.66 0 1.32 0 2 0 C2.99 3.63 3.98 7.26 5 11 C0 9 0 9 -1.3125 6.875 C-1.539375 6.25625 -1.76625 5.6375 -2 5 C-1.01 5.33 -0.02 5.66 1 6 C0.67 4.02 0.34 2.04 0 0 Z M1 6 C2 8 2 8 2 8 Z " fill="#A07C7C" transform="translate(499,559)"/>
<path d="M0 0 C0.66 0 1.32 0 2 0 C0.59928507 5.29158974 -2.85487245 7.77478044 -7 11 C-7.66 10.67 -8.32 10.34 -9 10 C-8.2575 9.278125 -7.515 8.55625 -6.75 7.8125 C-3.98732731 5.09288953 -3.98732731 5.09288953 -1.8125 2.1875 C-1.214375 1.465625 -0.61625 0.74375 0 0 Z " fill="#ABABAB" transform="translate(986,699)"/>
<path d="M0 0 C2.64 0 5.28 0 8 0 C8.33 0.66 8.66 1.32 9 2 C6.69 2 4.38 2 2 2 C2 4.31 2 6.62 2 9 C-0.29013653 5.5647952 -0.17842973 4.014669 0 0 Z " fill="#E8DADA" transform="translate(1002,637)"/>
<path d="M0 0 C1.32 0 2.64 0 4 0 C4 0.66 4 1.32 4 2 C7.3 2.33 10.6 2.66 14 3 C13.67 3.66 13.34 4.32 13 5 C7.06 4.01 7.06 4.01 1 3 C0.67 2.01 0.34 1.02 0 0 Z " fill="#DE7070" transform="translate(867,572)"/>
<path d="M0 0 C0.66 0.33 1.32 0.66 2 1 C1.04578192 2.14926266 0.08647955 3.29430541 -0.875 4.4375 C-1.40867187 5.07558594 -1.94234375 5.71367188 -2.4921875 6.37109375 C-4 8 -4 8 -6 9 C-6.33 9.99 -6.66 10.98 -7 12 C-7.66 12 -8.32 12 -9 12 C-7.60090738 7.54834166 -5.39864635 5.14374788 -2 2 C-1.34 1.34 -0.68 0.68 0 0 Z " fill="#B4B4B4" transform="translate(311,615)"/>
<path d="M0 0 C4.77609498 1.64178265 8.79382904 4.26546702 13 7 C12.01 7.495 12.01 7.495 11 8 C6.41252807 6.41240356 2.46293907 4.31014337 0 0 Z " fill="#BFBFBF" transform="translate(292,715)"/>
<path d="M0 0 C0 0.66 0 1.32 0 2 C-1.6232687 2.6708712 -3.24867578 3.33657029 -4.875 4 C-6.23238281 4.556875 -6.23238281 4.556875 -7.6171875 5.125 C-10 6 -10 6 -12 6 C-12 5.34 -12 4.68 -12 4 C-10.56570999 3.32645501 -9.12742943 2.66140299 -7.6875 2 C-6.88699219 1.62875 -6.08648437 1.2575 -5.26171875 0.875 C-3 0 -3 0 0 0 Z " fill="#EB7575" transform="translate(177,649)"/>
<path d="M0 0 C-0.33 0.99 -0.66 1.98 -1 3 C-2.65 3 -4.3 3 -6 3 C-6 3.66 -6 4.32 -6 5 C-7.32 5 -8.64 5 -10 5 C-9.67 4.01 -9.34 3.02 -9 2 C-3.21052632 0 -3.21052632 0 0 0 Z " fill="#A0A0A0" transform="translate(367,726)"/>
<path d="M0 0 C0 0.66 0 1.32 0 2 C-1.26839526 2.50615298 -2.53983102 3.00469099 -3.8125 3.5 C-4.87404297 3.91765625 -4.87404297 3.91765625 -5.95703125 4.34375 C-8 5 -8 5 -11 5 C-11 4.34 -11 3.68 -11 3 C-9.73160474 2.49384702 -8.46016898 1.99530901 -7.1875 1.5 C-6.12595703 1.08234375 -6.12595703 1.08234375 -5.04296875 0.65625 C-3 0 -3 0 0 0 Z " fill="#C8C8C8" transform="translate(378,723)"/>
<path d="M0 0 C0.66 0 1.32 0 2 0 C2.99 3.3 3.98 6.6 5 10 C4.34 10 3.68 10 3 10 C2.49596232 8.70990357 1.99690074 7.41786211 1.5 6.125 C1.2215625 5.40570312 0.943125 4.68640625 0.65625 3.9453125 C0 2 0 2 0 0 Z " fill="#B6B6B6" transform="translate(513,554)"/>
<path d="M0 0 C0 0.99 0 1.98 0 3 C-5.75 6 -5.75 6 -8 6 C-8 5.34 -8 4.68 -8 4 C-5.36 2.68 -2.72 1.36 0 0 Z " fill="#A3A3A3" transform="translate(967,717)"/>
<path d="M0 0 C3.82524236 1.450954 5.19090966 3.38181932 7 7 C7 7.66 7 8.32 7 9 C6.34 9 5.68 9 5 9 C3.7109375 7.28515625 3.7109375 7.28515625 2.375 5.0625 C1.92898438 4.33160156 1.48296875 3.60070312 1.0234375 2.84765625 C0 1 0 1 0 0 Z " fill="#E19D9D" transform="translate(668,499)"/>
<path d="M0 0 C3.77518545 1.25839515 4.19759138 2.55903808 6 6 C6.33 6.99 6.66 7.98 7 9 C2.97449681 7.6581656 2.11714364 5.5772427 0 2 C0 1.34 0 0.68 0 0 Z " fill="#ECC4C4" transform="translate(661,489)"/>
<path d="M0 0 C2.33944736 0.28730055 4.6739143 0.61936779 7 1 C7.33 1.99 7.66 2.98 8 4 C6.35 4 4.7 4 3 4 C3 3.34 3 2.68 3 2 C1.68 1.67 0.36 1.34 -1 1 C-0.67 0.67 -0.34 0.34 0 0 Z " fill="#ADADAD" transform="translate(900,727)"/>
<path d="M0 0 C0 0.66 0 1.32 0 2 C-4.455 3.485 -4.455 3.485 -9 5 C-8 2 -8 2 -6.1875 0.8125 C-4 0 -4 0 0 0 Z " fill="#EC8D8D" transform="translate(924,487)"/>
<path d="M0 0 C0.66 0 1.32 0 2 0 C3.32 2.64 4.64 5.28 6 8 C2 6 2 6 0 3 C0 2.01 0 1.02 0 0 Z " fill="#E97E7E" transform="translate(152,695)"/>
<path d="M0 0 C1.32 0 2.64 0 4 0 C4 0.66 4 1.32 4 2 C2.33720673 3.0064275 0.67016516 4.00585407 -1 5 C-1.66 5.99 -2.32 6.98 -3 8 C-2.45276317 4.62537285 -1.9451 2.91765 0 0 Z " fill="#E9B4B4" transform="translate(640,476)"/>
<path d="M0 0 C2.9719385 1.12451727 5.33440687 2.22293791 8 4 C7.67 4.66 7.34 5.32 7 6 C4.0625 4.6875 4.0625 4.6875 1 3 C0.67 2.01 0.34 1.02 0 0 Z " fill="#D0D0D0" transform="translate(874,715)"/>
<path d="M0 0 C0 0.66 0 1.32 0 2 C-2.70879335 3.35439668 -5.00933268 3.06501451 -8 3 C-8 2.34 -8 1.68 -8 1 C-5.23735711 0.40267181 -2.83967231 0 0 0 Z " fill="#BB9B9B" transform="translate(895,576)"/>
<path d="M0 0 C0.66 0 1.32 0 2 0 C1.34 2.64 0.68 5.28 0 8 C-0.66 8 -1.32 8 -2 8 C-1.125 2.25 -1.125 2.25 0 0 Z " fill="#F1B1B1" transform="translate(906,499)"/>
</svg>
